<svg width="500" height="500" viewBox="0 0 500 500" fill="none" xmlns="http://www.w3.org/2000/svg">
<path d="M500 382.398H0V382.648H500V382.398Z" fill="#94A4B8"/>
<path d="M85.581 391.922H52.459V392.172H85.581V391.922Z" fill="#94A4B8"/>
<path d="M179.833 389.208H145.333V389.458H179.833V389.208Z" fill="#94A4B8"/>
<path d="M131.5 396.75H76.082V397H131.5V396.75Z" fill="#94A4B8"/>
<path d="M448.833 397.667H405.64V397.917H448.833V397.667Z" fill="#94A4B8"/>
<path d="M393.333 391.417H370.43V391.667H393.333V391.417Z" fill="#94A4B8"/>
<path d="M289.309 395.431H195.633V395.681H289.309V395.431Z" fill="#94A4B8"/>
<path d="M237.014 337.8H43.915C40.768 337.8 38.207 335.239 38.207 332.092V60.6601C38.207 57.5131 40.768 54.9521 43.915 54.9521H237.014C240.16 54.9521 242.721 57.5131 242.721 60.6601V332.092C242.721 335.239 240.16 337.8 237.014 337.8ZM43.915 55.2031C40.905 55.2031 38.457 57.6511 38.457 60.6611V332.093C38.457 335.103 40.905 337.551 43.915 337.551H237.014C240.023 337.551 242.471 335.103 242.471 332.093V60.6601C242.471 57.6511 240.023 55.2021 237.014 55.2021L43.915 55.2031Z" fill="#94A4B8"/>
<path d="M453.31 337.8H260.212C257.065 337.8 254.505 335.239 254.505 332.092V60.6601C254.505 57.5131 257.066 54.9521 260.212 54.9521H453.31C456.458 54.9521 459.018 57.5131 459.018 60.6601V332.092C459.019 335.239 456.458 337.8 453.31 337.8ZM260.212 55.2031C257.203 55.2031 254.755 57.6511 254.755 60.6611V332.093C254.755 335.103 257.203 337.551 260.212 337.551H453.31C456.32 337.551 458.768 335.103 458.768 332.093V60.6601C458.768 57.6511 456.32 55.2021 453.31 55.2021L260.212 55.2031Z" fill="#94A4B8"/>
<path d="M202.737 379.299H148.597V382.399H202.737V379.299Z" fill="#E0E0E0"/>
<path d="M170.802 311.592L155.841 379.299H195.493L180.532 311.592C179.381 306.382 171.953 306.382 170.802 311.592Z" fill="#E0E0E0"/>
<path d="M183.506 325.034H167.828L164.038 342.191H187.296L183.506 325.034Z" fill="#F5F5F5"/>
<path d="M187.959 345.211H163.375L161.453 353.896H189.881L187.959 345.211Z" fill="#F5F5F5"/>
<path d="M72.5171 382.398H80.5641L104.24 250H96.1921L72.5171 382.398Z" fill="#E0E0E0"/>
<path d="M283.155 382.398H291.202L314.878 250H306.831L283.155 382.398Z" fill="#E0E0E0"/>
<path d="M338.554 256.445H72.5171V304.561H338.554V256.445Z" fill="#EBEBEB"/>
<path d="M101.36 302.439H73.7808L89.0778 258.568H116.657L101.36 302.439Z" fill="#FAFAFA"/>
<path d="M156.518 302.439H128.939L144.236 258.568H171.815L156.518 302.439Z" fill="#FAFAFA"/>
<path d="M211.676 302.439H184.097L199.394 258.568H226.973L211.676 302.439Z" fill="#FAFAFA"/>
<path d="M266.834 302.439H239.255L254.552 258.568H282.131L266.834 302.439Z" fill="#FAFAFA"/>
<path d="M321.992 302.439H294.413L309.71 258.568H337.289L321.992 302.439Z" fill="#FAFAFA"/>
<path d="M127.915 382.398H119.868L96.1919 250H104.24L127.915 382.398Z" fill="#E0E0E0"/>
<path d="M338.554 382.398H330.507L306.831 250H314.878L338.554 382.398Z" fill="#E0E0E0"/>
<path d="M447 378.333H376V382.398H447V378.333Z" fill="#E0E0E0"/>
<path d="M404.653 291.654L385.5 378.334H437.5L418.347 291.654C416.727 284.321 406.273 284.321 404.653 291.654Z" fill="#E0E0E0"/>
<path d="M421.78 307.17H401.22L396.25 329.67H426.75L421.78 307.17Z" fill="#F5F5F5"/>
<path d="M427.62 333.63H395.38L392.86 345.02H430.14L427.62 333.63Z" fill="#F5F5F5"/>
<path d="M463 241.899V271.2C463 273.163 461.092 274.561 459.22 273.967L36.2521 139.923C35.0461 139.541 34.2261 138.421 34.2261 137.156V107.855C34.2261 105.892 36.1341 104.494 38.0061 105.088L460.974 239.133C462.18 239.514 463 240.634 463 241.899Z" fill="#EBEBEB"/>
<path d="M429.714 262.383L453 269.763L440.084 234.745L416.798 227.366L429.714 262.383Z" fill="#FAFAFA"/>
<path d="M383.143 247.624L406.428 255.003L393.512 219.986L370.227 212.606L383.143 247.624Z" fill="#FAFAFA"/>
<path d="M336.571 232.865L359.857 240.244L346.941 205.227L323.655 197.847L336.571 232.865Z" fill="#FAFAFA"/>
<path d="M289.999 218.105L313.285 225.485L300.369 190.468L277.083 183.088L289.999 218.105Z" fill="#FAFAFA"/>
<path d="M243.428 203.346L266.714 210.726L253.798 175.708L230.512 168.329L243.428 203.346Z" fill="#FAFAFA"/>
<path d="M196.856 188.587L220.142 195.967L207.226 160.949L183.94 153.57L196.856 188.587Z" fill="#FAFAFA"/>
<path d="M150.285 173.828L173.57 181.207L160.654 146.19L137.369 138.81L150.285 173.828Z" fill="#FAFAFA"/>
<path d="M103.713 159.068L126.999 166.448L114.083 131.431L90.7969 124.051L103.713 159.068Z" fill="#FAFAFA"/>
<path d="M57.1411 144.309L80.4271 151.689L67.5111 116.671L44.2261 109.292L57.1411 144.309Z" fill="#FAFAFA"/>
<path d="M250 427.561C357.082 427.561 443.889 422.492 443.889 416.238C443.889 409.985 357.082 404.915 250 404.915C142.918 404.915 56.1108 409.985 56.1108 416.238C56.1108 422.492 142.918 427.561 250 427.561Z" fill="#F5F5F5"/>
<path d="M326.47 407.572H314.938V60.1201C314.938 58.2451 326.47 58.2451 326.47 60.1201V407.572Z" fill="#263238"/>
<path d="M326.47 190.596L314.939 192.92V176.97H326.47V190.596Z" fill="black"/>
<path d="M397.729 186.598L235.931 174.564C229.349 174.074 224.365 168.289 224.854 161.707L231.612 70.8469C232.102 64.2649 237.887 59.2809 244.469 59.7699L406.267 71.8039C412.849 72.2939 417.833 78.0789 417.344 84.6609L410.586 175.521C410.097 182.103 404.311 187.088 397.729 186.598Z" fill="white"/>
<path d="M398.632 188.131C398.295 188.131 397.957 188.119 397.618 188.094L235.821 176.061C232.238 175.794 228.966 174.139 226.606 171.4C224.246 168.661 223.093 165.179 223.359 161.596L230.117 70.737C230.384 67.154 232.039 63.882 234.778 61.521C237.517 59.162 240.998 58.0021 244.582 58.2751L406.379 70.309C409.962 70.576 413.234 72.2311 415.594 74.9691C417.954 77.7081 419.107 81.1901 418.841 84.7731L412.083 175.633C411.816 179.215 410.161 182.488 407.422 184.848C404.942 186.984 401.853 188.131 398.632 188.131ZM243.573 61.237C241.069 61.237 238.666 62.13 236.735 63.794C234.603 65.631 233.315 68.175 233.109 70.959L226.351 161.818C225.922 167.592 230.269 172.639 236.043 173.068L397.84 185.101C400.624 185.307 403.331 184.411 405.463 182.575C407.595 180.738 408.883 178.193 409.089 175.41L415.847 84.5501C416.276 78.7771 411.929 73.7301 406.155 73.3011L244.358 61.267C244.096 61.247 243.834 61.237 243.573 61.237Z" fill="#4575CB"/>
<path d="M287.445 108.046L267.118 106.534L267.801 97.357L289.925 74.707L299.65 75.431L297.815 100.114L302.856 100.489L302.212 109.145L297.171 108.77L296.613 116.277L286.888 115.553L287.445 108.046ZM288.089 99.39L289.029 86.751L277.348 98.591L288.089 99.39Z" fill="#4575CB"/>
<path d="M306.637 96.665C307.205 89.031 308.976 83.791 311.952 80.946C314.927 78.099 319.227 76.886 324.853 77.304C327.556 77.505 329.75 78.004 331.435 78.799C333.121 79.595 334.472 80.567 335.488 81.717C336.505 82.866 337.284 84.055 337.826 85.28C338.368 86.506 338.773 87.917 339.039 89.515C339.565 92.568 339.707 95.718 339.466 98.968C338.924 106.255 337.295 111.496 334.578 114.692C331.862 117.888 327.489 119.26 321.462 118.812C318.083 118.561 315.393 117.82 313.391 116.587C311.39 115.355 309.799 113.648 308.621 111.466C307.762 109.914 307.16 107.836 306.812 105.23C306.465 102.626 306.406 99.771 306.637 96.665ZM317.703 97.515C317.323 102.629 317.514 106.157 318.28 108.096C319.045 110.034 320.285 111.068 322.002 111.196C323.134 111.28 324.145 110.956 325.036 110.222C325.926 109.49 326.631 108.281 327.152 106.593C327.672 104.905 328.067 102.244 328.338 98.61C328.734 93.277 328.55 89.66 327.782 87.757C327.014 85.854 325.727 84.836 323.918 84.701C322.073 84.563 320.671 85.4 319.71 87.211C318.748 89.021 318.08 92.457 317.703 97.515Z" fill="#4575CB"/>
<path d="M355.498 91.9531L345.091 89.2771C346.218 85.9821 348.094 83.5331 350.72 81.9271C353.346 80.3231 356.942 79.6911 361.508 80.0311C366.749 80.4211 370.466 81.6801 372.659 83.8071C374.85 85.9361 375.837 88.4791 375.617 91.4371C375.488 93.1731 374.896 94.7081 373.842 96.0431C372.788 97.3791 371.263 98.5061 369.266 99.4221C370.789 99.9211 371.944 100.456 372.727 101.028C373.999 101.949 374.956 103.108 375.595 104.507C376.235 105.903 376.485 107.533 376.346 109.397C376.172 111.735 375.393 113.931 374.011 115.985C372.628 118.041 370.743 119.562 368.355 120.551C365.968 121.539 362.901 121.894 359.158 121.615C355.505 121.344 352.657 120.7 350.611 119.685C348.565 118.669 346.923 117.286 345.686 115.531C344.449 113.777 343.557 111.622 343.014 109.066L354.273 108.416C354.545 110.694 355.109 112.303 355.966 113.238C356.823 114.174 357.965 114.695 359.389 114.801C360.887 114.912 362.174 114.457 363.251 113.436C364.327 112.415 364.934 110.991 365.07 109.164C365.209 107.303 364.836 105.823 363.953 104.729C363.07 103.635 361.807 103.027 360.164 102.905C359.287 102.84 358.066 102.969 356.499 103.293L357.667 95.3641C358.281 95.5021 358.762 95.5831 359.109 95.6091C360.57 95.7171 361.824 95.3421 362.87 94.4831C363.916 93.6261 364.488 92.5561 364.582 91.2781C364.673 90.0541 364.38 89.0501 363.704 88.2651C363.028 87.4811 362.051 87.0391 360.772 86.9451C359.457 86.8471 358.359 87.1661 357.478 87.8991C356.598 88.6321 355.938 89.9831 355.498 91.9531Z" fill="#4575CB"/>
<path d="M272.07 123.813L287.59 124.967L287.293 128.969L277.577 128.246L277.355 131.225L286.368 131.896L286.084 135.718L277.071 135.047L276.796 138.742L286.794 139.486L286.479 143.73L270.677 142.554L272.07 123.813Z" fill="#4575CB"/>
<path d="M289.674 143.968L291.068 125.226L300.72 125.944C302.51 126.078 303.866 126.333 304.789 126.711C305.712 127.088 306.432 127.713 306.95 128.587C307.468 129.461 307.683 130.495 307.594 131.688C307.516 132.728 307.228 133.609 306.728 134.331C306.229 135.052 305.573 135.618 304.763 136.028C304.246 136.292 303.55 136.487 302.674 136.619C303.347 136.901 303.832 137.169 304.13 137.422C304.332 137.592 304.616 137.943 304.983 138.478C305.351 139.011 305.592 139.418 305.708 139.703L308.109 145.342L301.565 144.856L298.895 138.898C298.558 138.127 298.244 137.621 297.954 137.376C297.557 137.055 297.096 136.874 296.567 136.835L296.056 136.797L295.49 144.404L289.674 143.968ZM296.32 133.252L298.761 133.434C299.025 133.454 299.543 133.408 300.314 133.292C300.703 133.244 301.031 133.071 301.297 132.775C301.564 132.477 301.712 132.124 301.743 131.714C301.788 131.109 301.631 130.631 301.271 130.278C300.912 129.925 300.203 129.71 299.147 129.632L296.603 129.443L296.32 133.252Z" fill="#4575CB"/>
<path d="M310.04 145.482L311.434 126.74L321.085 127.458C322.875 127.592 324.231 127.847 325.155 128.225C326.078 128.602 326.799 129.227 327.317 130.101C327.835 130.975 328.049 132.009 327.961 133.202C327.884 134.242 327.595 135.123 327.095 135.845C326.595 136.566 325.94 137.132 325.13 137.542C324.613 137.806 323.917 138.001 323.041 138.133C323.714 138.415 324.199 138.683 324.497 138.936C324.699 139.107 324.983 139.457 325.35 139.992C325.718 140.525 325.958 140.932 326.075 141.217L328.476 146.856L321.932 146.37L319.263 140.412C318.926 139.642 318.612 139.135 318.322 138.89C317.926 138.569 317.464 138.388 316.935 138.349L316.424 138.311L315.859 145.918L310.04 145.482ZM316.685 134.767L319.127 134.949C319.391 134.969 319.909 134.923 320.68 134.807C321.069 134.759 321.397 134.586 321.663 134.29C321.93 133.992 322.078 133.639 322.109 133.23C322.154 132.624 321.997 132.147 321.637 131.793C321.278 131.44 320.569 131.225 319.513 131.147L316.969 130.958L316.685 134.767Z" fill="#4575CB"/>
<path d="M329.848 137.546C330.076 134.486 331.105 132.168 332.936 130.591C334.767 129.011 337.204 128.336 340.247 128.563C343.366 128.794 345.708 129.811 347.27 131.612C348.834 133.412 349.502 135.82 349.278 138.838C349.115 141.029 348.613 142.798 347.772 144.145C346.93 145.492 345.784 146.503 344.332 147.179C342.88 147.856 341.115 148.117 339.036 147.961C336.922 147.804 335.198 147.338 333.863 146.561C332.528 145.785 331.485 144.636 330.732 143.114C329.979 141.593 329.685 139.736 329.848 137.546ZM335.637 138.002C335.496 139.895 335.747 141.28 336.388 142.159C337.03 143.038 337.956 143.522 339.166 143.612C340.41 143.705 341.403 143.371 342.146 142.613C342.888 141.854 343.337 140.425 343.493 138.33C343.624 136.565 343.364 135.25 342.713 134.383C342.062 133.516 341.127 133.037 339.908 132.947C338.74 132.86 337.772 133.204 337.003 133.978C336.234 134.752 335.779 136.094 335.637 138.002Z" fill="#4575CB"/>
<path d="M351.768 148.586L353.161 129.844L362.813 130.562C364.603 130.696 365.959 130.951 366.882 131.329C367.805 131.706 368.526 132.331 369.043 133.205C369.561 134.079 369.776 135.113 369.687 136.306C369.609 137.346 369.321 138.227 368.821 138.949C368.322 139.67 367.666 140.236 366.856 140.646C366.338 140.91 365.642 141.105 364.767 141.237C365.44 141.519 365.925 141.787 366.223 142.04C366.424 142.211 366.709 142.561 367.076 143.096C367.444 143.629 367.685 144.036 367.801 144.321L370.202 149.96L363.658 149.474L360.988 143.516C360.652 142.746 360.337 142.239 360.047 141.994C359.651 141.673 359.189 141.492 358.66 141.453L358.149 141.415L357.584 149.022L351.768 148.586ZM358.414 137.87L360.855 138.052C361.119 138.072 361.637 138.026 362.409 137.91C362.798 137.862 363.126 137.689 363.391 137.393C363.658 137.095 363.806 136.742 363.837 136.332C363.882 135.727 363.725 135.249 363.365 134.896C363.006 134.543 362.297 134.328 361.24 134.25L358.696 134.061L358.414 137.87Z" fill="#4575CB"/>
<path d="M252.751 163.344L254.023 146.242L265.56 147.099L265.41 149.117L256.136 148.428L255.742 153.724L263.767 154.321L263.617 156.341L255.591 155.744L255.013 163.513L252.751 163.344Z" fill="#263238"/>
<path d="M267.158 156.04C267.369 153.201 268.297 151.036 269.94 149.543C271.584 148.051 273.611 147.395 276.022 147.574C277.601 147.691 278.996 148.174 280.207 149.023C281.419 149.871 282.306 150.995 282.871 152.393C283.435 153.791 283.654 155.346 283.527 157.057C283.398 158.791 282.933 160.318 282.131 161.633C281.329 162.95 280.26 163.913 278.925 164.521C277.59 165.129 276.179 165.378 274.694 165.268C273.084 165.148 271.674 164.652 270.465 163.781C269.256 162.909 268.374 161.776 267.821 160.382C267.267 158.988 267.046 157.541 267.158 156.04ZM269.488 156.248C269.335 158.309 269.768 159.975 270.788 161.242C271.808 162.51 273.154 163.206 274.826 163.331C276.529 163.457 277.975 162.963 279.165 161.848C280.354 160.733 281.031 159.075 281.195 156.873C281.299 155.481 281.153 154.248 280.761 153.175C280.367 152.102 279.739 151.245 278.875 150.607C278.012 149.968 277.016 149.606 275.889 149.522C274.287 149.403 272.867 149.851 271.631 150.866C270.394 151.881 269.68 153.676 269.488 156.248Z" fill="#263238"/>
<path d="M285.844 165.805L287.116 148.703L294.698 149.267C296.222 149.38 297.369 149.621 298.14 149.986C298.91 150.353 299.504 150.942 299.921 151.755C300.337 152.569 300.511 153.445 300.441 154.386C300.351 155.6 299.881 156.593 299.034 157.368C298.187 158.141 296.934 158.579 295.277 158.683C295.854 159.015 296.288 159.333 296.578 159.635C297.194 160.292 297.764 161.096 298.288 162.05L300.916 166.926L298.07 166.714L296.072 162.988C295.487 161.912 295.001 161.086 294.614 160.509C294.226 159.933 293.872 159.524 293.549 159.28C293.227 159.037 292.894 158.86 292.55 158.748C292.298 158.675 291.88 158.616 291.297 158.572L288.672 158.377L288.107 165.972L285.844 165.805ZM288.817 156.419L293.682 156.781C294.716 156.858 295.533 156.81 296.132 156.641C296.731 156.469 297.2 156.161 297.538 155.712C297.876 155.264 298.066 154.764 298.107 154.212C298.167 153.403 297.923 152.716 297.375 152.152C296.826 151.587 295.918 151.257 294.651 151.164L289.238 150.761L288.817 156.419Z" fill="#263238"/>
<path d="M302.968 167.078L304.24 149.976L310.656 150.454C311.963 150.551 312.997 150.803 313.761 151.207C314.524 151.613 315.103 152.191 315.497 152.943C315.89 153.696 316.058 154.464 315.999 155.251C315.945 155.982 315.695 156.655 315.25 157.27C314.806 157.886 314.168 158.364 313.338 158.701C314.349 159.081 315.106 159.657 315.608 160.428C316.11 161.201 316.323 162.085 316.25 163.08C316.19 163.882 315.966 164.612 315.577 165.276C315.187 165.939 314.73 166.438 314.205 166.775C313.679 167.111 313.035 167.346 312.27 167.482C311.505 167.616 310.579 167.643 309.49 167.562L302.968 167.078ZM305.382 165.23L309.639 165.546C310.37 165.601 310.885 165.611 311.185 165.578C311.713 165.523 312.16 165.399 312.526 165.209C312.892 165.017 313.204 164.722 313.46 164.322C313.716 163.924 313.865 163.45 313.906 162.906C313.953 162.269 313.831 161.703 313.539 161.208C313.247 160.713 312.819 160.35 312.254 160.114C311.689 159.882 310.862 159.724 309.773 159.643L305.819 159.349L305.382 165.23ZM305.969 157.332L309.667 157.606C310.67 157.681 311.394 157.668 311.839 157.568C312.427 157.439 312.882 157.189 313.203 156.814C313.524 156.438 313.707 155.951 313.751 155.352C313.793 154.786 313.694 154.275 313.455 153.823C313.214 153.371 312.848 153.048 312.354 152.85C311.86 152.653 310.999 152.508 309.77 152.416L306.352 152.162L305.969 157.332Z" fill="#263238"/>
<path d="M319.382 168.299L320.654 151.197L322.917 151.366L321.645 168.468L319.382 168.299Z" fill="#263238"/>
<path d="M325.634 168.764L326.906 151.662L332.797 152.101C334.127 152.2 335.135 152.358 335.823 152.573C336.786 152.872 337.592 153.343 338.24 153.984C339.086 154.814 339.687 155.838 340.046 157.057C340.406 158.276 340.528 159.648 340.415 161.171C340.319 162.471 340.081 163.61 339.703 164.591C339.326 165.572 338.874 166.372 338.351 166.994C337.828 167.617 337.27 168.095 336.678 168.43C336.086 168.766 335.384 169 334.573 169.137C333.761 169.271 332.839 169.3 331.804 169.223L325.634 168.764ZM328.047 166.915L331.698 167.186C332.826 167.27 333.718 167.23 334.375 167.067C335.032 166.906 335.565 166.648 335.975 166.296C336.552 165.799 337.023 165.108 337.39 164.225C337.757 163.342 337.989 162.255 338.085 160.963C338.218 159.175 338.026 157.777 337.511 156.774C336.995 155.771 336.329 155.074 335.514 154.684C334.924 154.406 333.957 154.216 332.612 154.116L329.02 153.849L328.047 166.915Z" fill="#263238"/>
<path d="M342.887 170.047L344.159 152.945L350.05 153.384C351.38 153.483 352.388 153.641 353.076 153.856C354.039 154.155 354.844 154.626 355.493 155.267C356.339 156.097 356.94 157.121 357.299 158.34C357.658 159.559 357.781 160.931 357.668 162.454C357.572 163.754 357.335 164.893 356.957 165.874C356.579 166.856 356.128 167.655 355.605 168.277C355.082 168.9 354.524 169.378 353.933 169.713C353.341 170.049 352.639 170.283 351.828 170.42C351.016 170.554 350.093 170.583 349.059 170.506L342.887 170.047ZM345.3 168.198L348.951 168.469C350.078 168.553 350.971 168.513 351.628 168.35C352.285 168.189 352.818 167.931 353.228 167.579C353.805 167.082 354.276 166.39 354.643 165.508C355.01 164.625 355.241 163.538 355.337 162.246C355.47 160.458 355.279 159.06 354.763 158.057C354.247 157.054 353.582 156.357 352.766 155.967C352.177 155.689 351.209 155.499 349.864 155.399L346.271 155.132L345.3 168.198Z" fill="#263238"/>
<path d="M360.186 171.334L361.458 154.232L373.823 155.152L373.673 157.17L363.571 156.418L363.181 161.656L372.642 162.36L372.493 164.367L363.032 163.663L362.599 169.484L373.098 170.265L372.948 172.283L360.186 171.334Z" fill="#263238"/>
<path d="M376.051 172.514L377.323 155.412L379.644 155.585L387.628 169.68L388.627 156.253L390.796 156.414L389.524 173.516L387.203 173.344L379.22 159.237L378.221 172.676L376.051 172.514Z" fill="#263238"/>
<path d="M169.922 164.889L170.252 166.85L170.632 168.936C170.905 170.329 171.172 171.728 171.487 173.113C172.095 175.886 172.804 178.625 173.602 181.279C174.003 182.606 174.435 183.912 174.912 185.174C175.37 186.445 175.861 187.69 176.404 188.866C177.484 191.231 178.713 193.39 180.071 195.096L177.333 193.3C177.975 193.625 178.587 193.895 179.621 193.831C180.624 193.783 181.973 193.408 183.355 192.725C184.758 192.062 186.214 191.132 187.652 190.069C188.37 189.536 189.095 188.977 189.798 188.383C190.157 188.092 190.508 187.791 190.854 187.487C191.195 187.202 191.578 186.85 191.846 186.636L192.384 186.206C193.989 184.923 196.329 185.185 197.612 186.79C198.522 187.929 198.652 189.442 198.078 190.681C197.784 191.312 197.576 191.783 197.309 192.309C197.046 192.816 196.777 193.317 196.495 193.812C195.92 194.792 195.309 195.759 194.631 196.696C193.28 198.574 191.7 200.363 189.77 202.01C188.81 202.835 187.721 203.589 186.536 204.289C185.352 204.989 184.033 205.614 182.558 206.043C181.093 206.481 179.494 206.775 177.824 206.796C176.155 206.82 174.466 206.545 172.865 206.082C171.941 205.814 171.143 205.322 170.513 204.682L170.126 204.286C167.369 201.465 165.298 198.413 163.633 195.325C161.942 192.241 160.616 189.108 159.503 185.959C158.364 182.816 157.492 179.643 156.733 176.461C156.37 174.866 156.024 173.272 155.748 171.658C155.608 170.852 155.469 170.044 155.351 169.227C155.234 168.382 155.134 167.641 155.025 166.652C154.575 162.536 157.546 158.834 161.662 158.383C165.626 157.949 169.205 160.689 169.867 164.568L169.922 164.889Z" fill="#263238"/>
<path d="M191.667 186.083C189.556 186.75 187.084 189.194 187.861 192.055C188.639 194.916 197.194 197.083 197.472 191.916C195 187 191.667 186.083 191.667 186.083Z" fill="white"/>
<path d="M190.545 188.872L191.455 187.483L200.795 184.958C200.795 184.958 202.157 190.908 195.407 193.174C194.929 193.334 194.402 193.271 193.955 193.038L191.266 191.636C190.256 191.109 189.92 189.825 190.545 188.872Z" fill="#FFBE9D"/>
<path d="M120.077 154.747C132.021 152.585 148.2 152.17 159.929 154.176C165.892 155.196 170.099 160.61 169.572 166.636C168.899 174.348 168.047 181.156 167.602 186.501C168.134 200.057 166.979 222.719 166.979 227.456C166.978 227.46 117.293 228.159 117.293 228.159C115.08 221.965 115.805 194.083 111.925 166.013C111.187 160.673 114.773 155.707 120.077 154.747Z" fill="#263238"/>
<path opacity="0.2" d="M145.593 227.519L144.601 227.394C147.424 205.142 144.627 167.864 144.598 167.49L145.595 167.414C145.624 167.788 148.428 205.168 145.593 227.519Z" fill="black"/>
<path d="M150.102 155.324C148.143 154.792 149.908 152.773 149.908 152.773C149.908 152.773 158.795 152.773 164.937 153.978C165.876 154.704 164.865 155.627 164.865 155.627C164.865 155.627 155.918 156.903 150.102 155.324Z" fill="#4575CB"/>
<path opacity="0.2" d="M147.294 152.47C147.294 152.47 150.241 158.39 146.295 163.771C149.421 163.793 152.3 165.771 152.3 165.771C152.3 165.771 153.709 160.696 149.737 152.98C149.302 152.251 147.294 152.47 147.294 152.47Z" fill="black"/>
<path d="M150.443 155.339C151.21 158.95 144.501 165.771 144.501 165.771C144.501 165.771 132.636 159.551 131.885 155.981L150.443 155.339Z" fill="#4575CB"/>
<path opacity="0.2" d="M119.358 172.367C120.661 174.882 119.075 185.416 114.369 190.597C114.056 186.022 113.672 181.235 113.167 176.356L119.358 172.367Z" fill="black"/>
<path d="M133.157 136.815L146.604 143.264C145.175 147.071 144.497 151.031 148.481 152.921C150.739 153.992 151.768 156.941 150.424 159.182C149.273 161.101 147.323 162.773 144.306 163.075C139.64 163.542 135.04 160.545 132.363 157.729C131.259 156.567 132.341 155.21 132.484 153.593C132.989 147.869 133.882 141.88 133.157 136.815Z" fill="#FFBE9D"/>
<path opacity="0.2" d="M139.348 138.1L146.599 143.26C146.183 144.356 145.837 145.463 145.654 146.53C142.677 147.505 137.947 144.907 137.869 142.315C137.83 141.022 139.045 138.721 139.348 138.1Z" fill="black"/>
<path d="M148.773 115.087C151.337 117.177 154.273 126.52 150.504 130.293C144.939 123.834 144.312 114.119 148.773 115.087Z" fill="#263238"/>
<path d="M129.436 125.903C130.452 133.875 130.64 138.596 134.957 142.405C141.449 148.135 151.102 143.732 152.491 135.596C153.742 128.273 151.871 116.466 143.818 113.863C135.884 111.298 128.42 117.932 129.436 125.903Z" fill="#FFBE9D"/>
<path d="M129.692 132.775C133.468 133.057 134.784 123.918 132.427 118.749C134.068 119.429 138.739 118.762 140.044 116.616C147.577 118.762 150.396 118.804 151.364 115.69C152.332 112.576 140.465 109.841 133.605 111.313C126.746 112.786 128.765 117.752 128.765 117.752C128.765 117.752 117.152 121.497 129.692 132.775Z" fill="#263238"/>
<path d="M126.935 133.392C128.084 135.202 129.822 136.324 131.37 136.695C133.698 137.252 134.504 134.912 133.557 132.563C132.705 130.449 130.467 127.612 128.275 128.107C126.114 128.595 125.621 131.322 126.935 133.392Z" fill="#FFBE9D"/>
<path d="M140.098 127.238C140.141 127.89 140.521 128.393 140.948 128.361C141.374 128.329 141.686 127.775 141.643 127.123C141.6 126.471 141.22 125.968 140.793 126C140.367 126.031 140.056 126.586 140.098 127.238Z" fill="#263238"/>
<path d="M148.944 126.521C148.987 127.173 149.367 127.676 149.794 127.644C150.22 127.612 150.532 127.058 150.489 126.406C150.446 125.754 150.066 125.251 149.639 125.283C149.213 125.315 148.902 125.869 148.944 126.521Z" fill="#263238"/>
<path d="M147.515 127.188C147.515 127.188 149.245 130.839 150.997 132.533C149.913 133.696 147.918 133.349 147.918 133.349L147.515 127.188Z" fill="#EB996E"/>
<path d="M143.459 122.077C143.503 122.124 143.535 122.182 143.551 122.248C143.6 122.453 143.473 122.66 143.266 122.709C141.19 123.201 139.884 122.002 139.829 121.951C139.674 121.806 139.668 121.564 139.815 121.411C139.961 121.258 140.204 121.251 140.359 121.395C140.402 121.435 141.43 122.359 143.087 121.966C143.227 121.932 143.367 121.98 143.459 122.077Z" fill="#263238"/>
<path d="M145.078 123.969C145.022 123.938 144.974 123.892 144.939 123.834C144.83 123.653 144.89 123.418 145.073 123.309C146.906 122.217 148.511 122.969 148.579 123.002C148.77 123.094 148.849 123.323 148.755 123.513C148.661 123.703 148.432 123.782 148.241 123.691C148.188 123.666 146.93 123.093 145.468 123.964C145.344 124.038 145.195 124.035 145.078 123.969Z" fill="#263238"/>
<path d="M152.572 120.337C152.453 120.374 152.319 120.352 152.217 120.267C150.916 119.192 149.589 119.582 149.533 119.599C149.331 119.661 149.117 119.548 149.056 119.346C148.995 119.144 149.107 118.929 149.309 118.865C149.383 118.844 151.077 118.324 152.707 119.671C152.87 119.805 152.892 120.048 152.757 120.212C152.706 120.274 152.641 120.316 152.572 120.337Z" fill="#263238"/>
<path d="M196.16 219.96C195.724 219.153 194.708 218.85 193.901 219.286L181.667 225.897L175.885 215.198C175.449 214.391 174.433 214.088 173.627 214.524C172.82 214.96 172.517 215.976 172.953 216.783L178.735 227.482L136.578 250.265C135.772 250.701 135.468 251.717 135.904 252.524C136.34 253.33 137.357 253.634 138.163 253.198L195.487 222.219C196.293 221.783 196.596 220.766 196.16 219.96Z" fill="#263238"/>
<path d="M195.264 276.182C175.285 261.18 113.693 255.138 134.974 227.755L166.979 227.456C166.979 227.456 212.022 250.562 214.434 274.723C216.945 299.845 221.398 339.417 221.398 339.417L209.001 343.818C209.001 343.818 190.899 295.298 195.264 276.182Z" fill="#4575CB"/>
<path opacity="0.2" d="M136.075 241.503C135.334 243.115 134.65 244.803 134.022 246.566C139.001 252.219 148.826 256.57 159.459 260.611C156.214 254.807 148.948 248.413 136.075 241.503Z" fill="black"/>
<path d="M209.132 348.206L221.949 344.904C222.732 344.7 223.622 344.672 224.398 345.023C228.877 347.043 231.742 346.444 236.167 346.168C241.472 345.836 240.277 351.531 236.555 352.502C230.398 354.107 230.853 353.755 225.602 355.123C224.417 355.432 221.958 356.062 221.958 356.062L219.874 354.791L218.851 356.82C218.851 356.82 214.804 357.807 212.104 358.466C211.357 358.648 210.606 358.178 210.494 357.419L209.132 348.206Z" fill="#263238"/>
<path d="M209.462 349.471C209.651 349.382 224.077 345.343 224.077 345.343L221.842 334.251L205.807 338.595L209.462 349.471Z" fill="#263238"/>
<path d="M119.769 309.823C120.375 273.386 112.722 236.297 117.293 228.159L154.413 227.635C154.413 227.635 143.317 288.383 140.386 312.654C137.341 337.891 122.382 403.514 122.382 403.514L110.413 403.7C110.413 403.7 111.829 335.979 119.769 309.823Z" fill="#4575CB"/>
<path d="M109.966 405.633L120.984 405.462C121.792 405.449 122.669 405.633 123.355 406.158C127.312 409.181 127.777 409.279 132.163 410.059C137.422 410.994 135.059 416.243 131.214 416.304C124.855 416.404 125.373 416.17 119.951 416.255C118.727 416.275 114.062 416.304 114.062 416.304L113.204 414.575L112.238 416.304H110.687C109.933 416.304 109.319 415.651 109.367 414.901L109.966 405.633Z" fill="#263238"/>
<path d="M109.923 406.94C110.11 406.898 123.771 407.572 123.771 407.572L124.68 395.088L109.836 395.509L109.923 406.94Z" fill="#263238"/>
<path d="M146.804 151.757C146.804 151.757 150.24 158.389 146.295 163.771C149.421 163.793 152.845 165.13 152.845 165.13C152.845 165.13 155.631 158.382 149.485 152.344C149.05 151.614 146.804 151.757 146.804 151.757Z" fill="white"/>
<path d="M115.932 231.976C133.68 233.039 154.033 233.364 166.761 231.975C166.902 231.96 167.03 231.865 167.112 231.698C167.908 230.063 168.3 227.253 168.208 224.908C168.194 224.548 167.975 224.278 167.726 224.288C150.927 224.94 134.234 224.906 116.685 224.282C116.488 224.275 116.303 224.444 116.23 224.71C115.669 226.764 115.371 228.995 115.478 231.342C115.493 231.686 115.693 231.962 115.932 231.976Z" fill="#263238"/>
<path opacity="0.2" d="M115.932 231.976C133.68 233.039 154.033 233.364 166.761 231.975C166.902 231.96 167.03 231.865 167.112 231.698C167.908 230.063 168.3 227.253 168.208 224.908C168.194 224.548 167.975 224.278 167.726 224.288C150.927 224.94 134.234 224.906 116.685 224.282C116.488 224.275 116.303 224.444 116.23 224.71C115.669 226.764 115.371 228.995 115.478 231.342C115.493 231.686 115.693 231.962 115.932 231.976Z" fill="black"/>
<path d="M146.206 234.727C144.285 234.727 142.568 234.51 142.447 234.495L141.596 234.385L141.575 233.528C141.57 233.31 141.447 228.144 141.731 223.993L141.788 223.155L142.623 223.067C146.398 222.668 150.06 222.92 150.214 222.931L151.105 222.994L151.142 223.887C151.152 224.124 151.374 229.748 150.801 233.447L150.709 234.038L150.145 234.237C149.073 234.614 147.586 234.727 146.206 234.727ZM143.559 232.602C145.018 232.733 147.377 232.837 148.912 232.506C149.232 229.902 149.206 226.487 149.171 224.879C148.016 224.835 145.897 224.798 143.675 224.976C143.52 227.855 143.539 231.084 143.559 232.602Z" fill="white"/>
<path d="M126.92 224.262C126.92 224.262 126.631 229.87 126.225 233.441C125.433 234.258 123.957 233.633 123.957 233.633C123.957 233.633 124.251 228.447 124.602 224.378C125.789 223.997 126.92 224.262 126.92 224.262Z" fill="#4575CB"/>
<path d="M163.559 224.262C163.559 224.262 163.27 229.87 162.864 233.441C162.072 234.258 160.596 233.633 160.596 233.633C160.596 233.633 160.89 228.447 161.241 224.378C162.428 223.997 163.559 224.262 163.559 224.262Z" fill="#4575CB"/>
<path d="M151.961 173.63C152.5 180.86 157.11 182.488 157.757 182.474C158.404 182.461 162.758 180.648 162.219 173.418C160.381 173.468 158.636 172.672 156.937 171.466C155.522 172.846 153.883 173.619 151.961 173.63Z" fill="#4575CB"/>
<path d="M151.005 114.426C156.145 115.288 158.084 117.683 146.508 119.085C134.932 120.487 126.35 119.424 126.35 119.424C126.35 119.424 141.783 114.383 151.005 114.426Z" fill="#263238"/>
<path d="M125.415 120.027C125.415 120.027 135.483 116.62 151.352 114.766C151.613 111.567 149.115 109.231 149.115 109.231C149.115 109.231 154.974 108.182 152.064 106.48C150.068 105.313 145.286 105.182 140 101.78C137.833 103.761 131.887 106.975 127.83 107.388C126.824 109.107 124.202 113.412 119.953 115.075C120.014 116.951 124.24 117.438 124.24 117.438C124.24 117.438 124.041 118.701 125.415 120.027Z" fill="#4575CB"/>
<path opacity="0.8" d="M124.24 117.437C132.849 111.846 141.106 109.422 149.115 109.231C149.115 109.231 151.613 111.567 151.352 114.766C135.483 116.621 125.415 120.027 125.415 120.027C124.041 118.701 124.24 117.437 124.24 117.437Z" fill="#263238"/>
<path d="M139.509 107.705C140.502 112.623 143.979 113.519 144.446 113.48C144.914 113.441 147.918 111.998 146.925 107.08C145.597 107.2 144.266 106.738 142.934 105.992C142.024 107.002 140.901 107.607 139.509 107.705Z" fill="white"/>
<path d="M145.347 123.07C146.49 123.23 148.359 131.811 142.401 132.27C137.393 132.656 135.833 128.065 135.833 126.463C135.832 124.064 143.734 122.844 145.347 123.07Z" fill="#263238"/>
<path d="M147.874 122.967C147.164 123.4 148.756 132.538 152.918 131.576C156.416 130.768 155.828 125.798 155.258 124.195C154.405 121.792 148.877 122.355 147.874 122.967Z" fill="#263238"/>
<path d="M143.244 123.16L146.355 128.826C146.092 129.907 145.567 130.897 144.638 131.533L140.346 123.685C141.346 123.443 142.376 123.262 143.244 123.16Z" fill="white"/>
<path d="M139.083 124.039L143.486 132.078C143.163 132.179 142.799 132.239 142.405 132.27C142.152 132.29 141.92 132.3 141.688 132.29L137.507 124.664C137.972 124.433 138.508 124.231 139.083 124.039Z" fill="white"/>
<path d="M152.91 122.605L155.667 127.635C155.606 128.503 155.414 129.372 154.98 130.079L150.799 122.433C151.506 122.423 152.243 122.474 152.91 122.605Z" fill="white"/>
<path d="M154.445 130.765C154.203 131.008 153.91 131.21 153.556 131.361L148.789 122.655C149.112 122.584 149.486 122.534 149.9 122.483L154.445 130.765Z" fill="white"/>
<path d="M209.047 177.936C209.561 177.72 208.704 175.676 208.189 175.891L138.254 205.225C138.078 204.96 137.743 204.838 137.438 204.966L134.513 206.193C134.208 206.321 134.06 206.645 134.126 206.957L124.933 210.813C122.875 211.676 121.035 212.987 119.546 214.65L115.429 219.25C115.271 221.462 113.404 223.159 111.188 223.106L110.576 223.092L89.4372 235.884C87.8442 236.848 87.0712 238.747 87.5362 240.55C88.4452 244.075 89.7002 246.901 91.2162 249.199C92.6582 251.386 95.7492 251.7 97.6382 249.884L119.041 229.319C119.945 228.451 120.508 227.288 120.63 226.04L120.888 223.4L125.506 218.24C126.821 220.48 129.61 221.476 132.07 220.444C134.75 219.32 136.016 216.225 134.892 213.545C134.866 213.483 134.825 213.431 134.797 213.37L136.509 212.652C136.68 212.933 137.027 213.064 137.34 212.933L140.265 211.706C140.578 211.575 140.728 211.236 140.647 210.917L181.435 193.808C181.909 193.609 182.133 193.063 181.934 192.589L203.927 183.364C204.268 183.221 203.744 181.971 203.403 182.115L201.777 182.797L201.692 181.021L209.047 177.936ZM131.642 219.423C129.588 220.285 127.237 219.358 126.288 217.369L126.902 216.683L127.212 216.553C127.482 216.907 127.782 217.241 128.141 217.523C129.249 218.392 130.629 218.777 132.027 218.609L131.894 217.507C130.79 217.641 129.701 217.338 128.825 216.651C128.618 216.489 128.432 216.307 128.262 216.114L133.775 213.801C133.804 213.862 133.844 213.913 133.87 213.976C134.758 216.091 133.759 218.535 131.642 219.423ZM199.776 183.637L181.411 191.34L180.765 189.8L199.692 181.861L199.776 183.637Z" fill="#4575CB"/>
<path opacity="0.2" d="M209.047 177.936C209.561 177.72 208.704 175.676 208.189 175.891L138.254 205.225C138.078 204.96 137.743 204.838 137.438 204.966L134.513 206.193C134.208 206.321 134.06 206.645 134.126 206.957L124.933 210.813C122.875 211.676 121.035 212.987 119.546 214.65L115.429 219.25C115.271 221.462 113.404 223.159 111.188 223.106L110.576 223.092L89.4372 235.884C87.8442 236.848 87.0712 238.747 87.5362 240.55C88.4452 244.075 89.7002 246.901 91.2162 249.199C92.6582 251.386 95.7492 251.7 97.6382 249.884L119.041 229.319C119.945 228.451 120.508 227.288 120.63 226.04L120.888 223.4L125.506 218.24C126.821 220.48 129.61 221.476 132.07 220.444C134.75 219.32 136.016 216.225 134.892 213.545C134.866 213.483 134.825 213.431 134.797 213.37L136.509 212.652C136.68 212.933 137.027 213.064 137.34 212.933L140.265 211.706C140.578 211.575 140.728 211.236 140.647 210.917L181.435 193.808C181.909 193.609 182.133 193.063 181.934 192.589L203.927 183.364C204.268 183.221 203.744 181.971 203.403 182.115L201.777 182.797L201.692 181.021L209.047 177.936ZM131.642 219.423C129.588 220.285 127.237 219.358 126.288 217.369L126.902 216.683L127.212 216.553C127.482 216.907 127.782 217.241 128.141 217.523C129.249 218.392 130.629 218.777 132.027 218.609L131.894 217.507C130.79 217.641 129.701 217.338 128.825 216.651C128.618 216.489 128.432 216.307 128.262 216.114L133.775 213.801C133.804 213.862 133.844 213.913 133.87 213.976C134.758 216.091 133.759 218.535 131.642 219.423ZM199.776 183.637L181.411 191.34L180.765 189.8L199.692 181.861L199.776 183.637Z" fill="black"/>
<path d="M182.066 189.629L162.69 197.756C162.019 198.038 161.686 198.796 161.932 199.481L162.725 201.682C162.99 202.418 163.819 202.782 164.54 202.48L183.915 194.353C184.586 194.072 184.919 193.313 184.673 192.629L183.88 190.428C183.616 189.69 182.788 189.326 182.066 189.629Z" fill="#4575CB"/>
<path d="M194.402 182.055L195.069 181.874C196.799 181.404 198.645 181.963 199.824 183.313L200.419 183.995C201.105 184.78 200.816 186.007 199.852 186.404L193.261 189.12C192.471 189.446 191.568 189.058 191.26 188.261C190.26 185.67 191.721 182.783 194.402 182.055Z" fill="#FFBE9D"/>
<path d="M124.6 168.254L124.099 168.85L123.52 169.56L122.337 171.032C121.556 172.04 120.767 173.058 119.997 174.096C118.456 176.173 116.966 178.313 115.531 180.491C114.063 182.65 112.744 184.905 111.384 187.141C110.081 189.407 108.825 191.704 107.635 194.036L106.753 195.791L106.538 196.219C106.517 196.268 106.492 196.316 106.464 196.363C106.4 196.443 106.352 196.572 106.301 196.709C106.094 197.246 105.904 198.074 105.841 199.037C105.714 200.975 105.958 203.376 106.416 205.799C107.309 210.673 108.994 215.895 110.675 220.864L110.739 221.053C111.403 223.015 110.35 225.144 108.387 225.808C106.843 226.33 105.193 225.784 104.237 224.574C102.339 222.162 100.776 219.774 99.2832 217.19C97.8062 214.62 96.4762 211.934 95.3592 209.035C94.2692 206.126 93.3152 203.045 93.0172 199.415C92.8742 197.602 92.8682 195.629 93.3332 193.466C93.4452 192.927 93.5752 192.385 93.7722 191.818L94.0532 190.982L94.2562 190.456L95.0572 188.395C97.2162 182.904 99.8632 177.614 102.902 172.549C104.434 170.023 106.038 167.537 107.801 165.14C108.68 163.94 109.579 162.747 110.531 161.58C111.016 160.997 111.482 160.408 111.997 159.831L112.774 158.955L113.661 157.995C116.469 154.955 121.21 154.767 124.25 157.576C127.199 160.301 127.464 164.844 124.912 167.889L124.6 168.254Z" fill="#263238"/>
<path d="M132.428 156.089C134.434 155.379 131.886 153.235 131.886 153.235C131.886 153.235 121.283 153.561 114.976 155.231C114.034 156.136 115.121 157.206 115.121 157.206C115.121 157.206 126.473 158.196 132.428 156.089Z" fill="#4575CB"/>
<path opacity="0.2" d="M132.274 153.036C132.274 153.036 133.839 158.951 140.985 163.781C137.859 163.804 133.444 166.901 133.444 166.901C133.444 166.901 129.287 161.672 130.755 153.48C131.189 152.75 132.274 153.036 132.274 153.036Z" fill="black"/>
<path d="M132.481 151.965C132.481 151.965 134.339 158.372 140.984 163.781C137.858 163.804 133.197 165.338 133.197 165.338C133.197 165.338 129.286 161.671 130.754 153.479C131.189 152.75 132.481 151.965 132.481 151.965Z" fill="white"/>
<path d="M109.615 220.408L115.834 225.758L107.585 231.12C107.585 231.12 102.542 225.593 105.046 222.439L109.615 220.408Z" fill="#FFBE9D"/>
<path d="M104.188 224.917C104.188 224.917 102.896 223.894 102.5 222.718C104.479 220.667 108.479 218.98 110.292 218.521C111.396 219.563 111.438 221.719 111.438 221.719C111.438 221.719 106.167 222.625 104.188 224.917Z" fill="white"/>
<path d="M116.539 234.249L113.331 235.641C112.054 236.195 110.564 235.743 109.81 234.573L107.586 231.12L115.835 225.758L117.992 230.456C118.656 231.903 118.001 233.615 116.539 234.249Z" fill="#FFBE9D"/>
<path d="M141.514 136.03L141.518 136.027C144.96 133.905 147.992 135.292 148.119 135.352C148.245 135.411 148.299 135.562 148.239 135.688C148.18 135.814 148.029 135.868 147.904 135.809C147.875 135.796 144.983 134.483 141.783 136.457C141.664 136.53 141.509 136.493 141.436 136.375C141.364 136.257 141.399 136.104 141.514 136.03Z" fill="#263238"/>
<path d="M125.153 173.514L138.637 172.999L138.59 171.909L125.106 172.424L125.153 173.514Z" fill="white"/>
<path d="M241.885 417.458H215.699L234.732 266.283H260.919L241.885 417.458Z" fill="#4575CB"/>
<path opacity="0.4" d="M241.885 417.458H215.699L234.732 266.283H260.919L241.885 417.458Z" fill="black"/>
<path d="M213.357 417.458H215.699L234.732 266.283H232.391L213.357 417.458Z" fill="#263238"/>
<path d="M339.534 417.458H313.347L332.381 266.283H358.568L339.534 417.458Z" fill="#4575CB"/>
<path opacity="0.4" d="M339.534 417.458H313.347L332.381 266.283H358.568L339.534 417.458Z" fill="black"/>
<path d="M311.005 417.458H313.347L332.381 266.283H330.039L311.005 417.458Z" fill="#263238"/>
<path d="M266.121 399.468H361.081L356.938 366.563H261.978L266.121 399.468Z" fill="#4575CB"/>
<path d="M266.121 399.468H264.566L260.423 366.563H261.978L266.121 399.468Z" fill="#263238"/>
<path d="M355.847 368L359.628 398.032H354.018L338.952 368H355.847Z" fill="white"/>
<path d="M329.384 368L344.45 398.032H323.846L308.78 368H329.384Z" fill="white"/>
<path d="M299.212 368L314.279 398.032H293.674L278.608 368H299.212Z" fill="white"/>
<path d="M269.047 368L284.113 398.032H267.211L263.43 368H269.047Z" fill="white"/>
<path d="M351.99 417.458H378.177L359.143 266.283H332.956L351.99 417.458Z" fill="#4575CB"/>
<path opacity="0.2" d="M341.436 333.632L368.986 344.456L361.082 281.677H334.895L341.436 333.632Z" fill="black"/>
<path d="M351.99 417.458H349.649L330.615 266.283H332.956L351.99 417.458Z" fill="#263238"/>
<path d="M254.342 417.458H280.529L261.495 266.283H235.308L254.342 417.458Z" fill="#4575CB"/>
<path opacity="0.2" d="M243.788 333.632L271.337 344.456L263.433 281.677H237.246L243.788 333.632Z" fill="black"/>
<path d="M254.342 417.458H252L232.966 266.283H235.308L254.342 417.458Z" fill="#263238"/>
<path d="M233.33 326.656H376.324L370.085 277.107H227.092L233.33 326.656Z" fill="#4575CB"/>
<path d="M233.33 326.656H230.989L224.75 277.107H227.092L233.33 326.656Z" fill="#263238"/>
<path d="M368.442 279.272L374.136 324.494H365.687L343 279.272H368.442Z" fill="white"/>
<path d="M328.593 279.272L351.28 324.494H320.254L297.567 279.272H328.593Z" fill="white"/>
<path d="M283.16 279.272L305.847 324.494H274.82L252.133 279.272H283.16Z" fill="white"/>
<path d="M237.736 279.272L260.423 324.494H234.972L229.278 279.272H237.736Z" fill="white"/>
</svg>
