<svg width="500" height="500" viewBox="0 0 500 500" fill="none" xmlns="http://www.w3.org/2000/svg">
<path d="M500 382.398H0V382.648H500V382.398Z" fill="#94A4B8"/>
<path d="M78.456 391.922H52.459V392.172H78.456V391.922Z" fill="#94A4B8"/>
<path d="M200.434 389.208H146.333V389.458H200.434V389.208Z" fill="#EBEBEB"/>
<path d="M105.774 401.208H79.457V401.458H105.774V401.208Z" fill="#94A4B8"/>
<path d="M449.902 399.528H430.667V399.778H449.902V399.528Z" fill="#94A4B8"/>
<path d="M421.763 399.528H391.471V399.778H421.763V399.528Z" fill="#EBEBEB"/>
<path d="M312.783 395.306H258.227V395.556H312.783V395.306Z" fill="#94A4B8"/>
<path d="M237.014 337.8H43.915C40.768 337.8 38.207 335.239 38.207 332.092V60.6601C38.207 57.5131 40.768 54.9521 43.915 54.9521H237.014C240.16 54.9521 242.721 57.5131 242.721 60.6601V332.092C242.721 335.239 240.16 337.8 237.014 337.8ZM43.915 55.2031C40.905 55.2031 38.457 57.6511 38.457 60.6611V332.093C38.457 335.103 40.905 337.551 43.915 337.551H237.014C240.023 337.551 242.471 335.103 242.471 332.093V60.6601C242.471 57.6511 240.023 55.2021 237.014 55.2021L43.915 55.2031Z" fill="#94A4B8"/>
<path d="M453.31 337.8H260.212C257.065 337.8 254.505 335.239 254.505 332.092V60.6601C254.505 57.5131 257.066 54.9521 260.212 54.9521H453.31C456.458 54.9521 459.018 57.5131 459.018 60.6601V332.092C459.019 335.239 456.458 337.8 453.31 337.8ZM260.212 55.2031C257.203 55.2031 254.755 57.6511 254.755 60.6611V332.093C254.755 335.103 257.203 337.551 260.212 337.551H453.31C456.32 337.551 458.768 335.103 458.768 332.093V60.6601C458.768 57.6511 456.32 55.2021 453.31 55.2021L260.212 55.2031Z" fill="#94A4B8"/>
<path d="M382.194 149.609H312.76C309.014 153.354 306.915 155.454 303.169 159.2V372.807C306.914 376.553 309.014 378.652 312.76 382.398H382.194C385.939 378.653 388.039 376.553 391.785 372.807V159.2C388.039 155.455 385.939 153.355 382.194 149.609Z" fill="#E0E0E0"/>
<path d="M303.17 372.808L312.76 382.398H334.294L324.703 372.808H303.17Z" fill="#EBEBEB"/>
<path d="M303.17 159.2L312.76 149.609H334.294L324.703 159.2H303.17Z" fill="#EBEBEB"/>
<path d="M420.409 149.609H334.294C330.549 153.354 328.449 155.454 324.703 159.2V372.807C328.448 376.553 330.548 378.652 334.294 382.398H420.409C424.154 378.653 426.254 376.553 430 372.807V159.2C426.254 155.455 424.155 153.355 420.409 149.609Z" fill="#EBEBEB"/>
<path d="M335.515 377.92L329.182 371.587V160.421L335.515 154.087H419.188L425.522 160.421V371.587L419.188 377.92H335.515Z" fill="white"/>
<path d="M425.521 165.454H333.66V183.952H425.521V165.454Z" fill="#EBEBEB"/>
<path d="M420.334 352.914C420.334 353.357 420.693 353.716 421.137 353.716C421.58 353.716 421.939 353.357 421.939 352.914C421.939 352.471 421.58 352.111 421.137 352.111C420.693 352.111 420.334 352.471 420.334 352.914Z" fill="#EBEBEB"/>
<path d="M416.475 352.914C416.475 353.357 416.834 353.716 417.277 353.716C417.72 353.716 418.08 353.357 418.08 352.914C418.08 352.471 417.721 352.111 417.277 352.111C416.835 352.111 416.475 352.471 416.475 352.914Z" fill="white"/>
<path d="M412.616 352.914C412.616 353.357 412.975 353.716 413.418 353.716C413.861 353.716 414.22 353.357 414.22 352.914C414.22 352.471 413.861 352.111 413.418 352.111C412.976 352.111 412.616 352.471 412.616 352.914Z" fill="#EBEBEB"/>
<path d="M425.521 172.905H333.66V176.5H425.521V172.905Z" fill="#EBEBEB"/>
<path d="M329.182 183.951H333.66V165.453H329.182V183.951Z" fill="#E0E0E0"/>
<path d="M425.521 185.743H333.66V204.241H425.521V185.743Z" fill="#EBEBEB"/>
<path d="M420.334 332.625C420.334 333.068 420.693 333.427 421.137 333.427C421.58 333.427 421.939 333.068 421.939 332.625C421.939 332.182 421.58 331.823 421.137 331.823C420.693 331.822 420.334 332.181 420.334 332.625Z" fill="#EBEBEB"/>
<path d="M416.475 332.625C416.475 333.068 416.834 333.427 417.277 333.427C417.72 333.427 418.08 333.068 418.08 332.625C418.08 332.182 417.721 331.823 417.277 331.823C416.835 331.822 416.475 332.181 416.475 332.625Z" fill="white"/>
<path d="M412.616 332.625C412.616 333.068 412.975 333.427 413.418 333.427C413.861 333.427 414.22 333.068 414.22 332.625C414.22 332.182 413.861 331.823 413.418 331.823C412.976 331.822 412.616 332.181 412.616 332.625Z" fill="white"/>
<path d="M425.521 193.194H333.66V196.789H425.521V193.194Z" fill="#EBEBEB"/>
<path d="M329.182 204.24H333.66V185.742H329.182V204.24Z" fill="#E0E0E0"/>
<path d="M425.521 206.032H333.66V224.53H425.521V206.032Z" fill="#EBEBEB"/>
<path d="M420.334 312.336C420.334 312.779 420.693 313.138 421.137 313.138C421.58 313.138 421.939 312.779 421.939 312.336C421.939 311.893 421.58 311.533 421.137 311.533C420.693 311.533 420.334 311.892 420.334 312.336Z" fill="#EBEBEB"/>
<path d="M416.475 312.336C416.475 312.779 416.834 313.138 417.277 313.138C417.72 313.138 418.08 312.779 418.08 312.336C418.08 311.893 417.721 311.533 417.277 311.533C416.835 311.533 416.475 311.892 416.475 312.336Z" fill="#EBEBEB"/>
<path d="M412.616 312.336C412.616 312.779 412.975 313.138 413.418 313.138C413.861 313.138 414.22 312.779 414.22 312.336C414.22 311.893 413.861 311.533 413.418 311.533C412.976 311.533 412.616 311.892 412.616 312.336Z" fill="#EBEBEB"/>
<path d="M425.521 213.483H333.66V217.078H425.521V213.483Z" fill="#EBEBEB"/>
<path d="M329.182 224.53H333.66V206.032H329.182V224.53Z" fill="#E0E0E0"/>
<path d="M425.521 226.321H333.66V244.819H425.521V226.321Z" fill="#EBEBEB"/>
<path d="M420.334 292.046C420.334 292.489 420.693 292.848 421.137 292.848C421.58 292.848 421.939 292.489 421.939 292.046C421.939 291.603 421.58 291.244 421.137 291.244C420.693 291.244 420.334 291.603 420.334 292.046Z" fill="white"/>
<path d="M416.475 292.046C416.475 292.489 416.834 292.848 417.277 292.848C417.72 292.848 418.08 292.489 418.08 292.046C418.08 291.603 417.721 291.244 417.277 291.244C416.835 291.244 416.475 291.603 416.475 292.046Z" fill="white"/>
<path d="M412.616 292.046C412.616 292.489 412.975 292.848 413.418 292.848C413.861 292.848 414.22 292.489 414.22 292.046C414.22 291.603 413.861 291.244 413.418 291.244C412.976 291.244 412.616 291.603 412.616 292.046Z" fill="#EBEBEB"/>
<path d="M425.521 233.772H333.66V237.367H425.521V233.772Z" fill="#EBEBEB"/>
<path d="M329.182 244.819H333.66V226.321H329.182V244.819Z" fill="#E0E0E0"/>
<path d="M425.521 246.61H333.66V265.108H425.521V246.61Z" fill="#EBEBEB"/>
<path d="M420.334 271.757C420.334 272.2 420.693 272.56 421.137 272.56C421.58 272.56 421.939 272.201 421.939 271.757C421.939 271.314 421.58 270.955 421.137 270.955C420.693 270.955 420.334 271.314 420.334 271.757Z" fill="white"/>
<path d="M416.475 271.757C416.475 272.2 416.834 272.56 417.277 272.56C417.72 272.56 418.08 272.201 418.08 271.757C418.08 271.314 417.721 270.955 417.277 270.955C416.835 270.955 416.475 271.314 416.475 271.757Z" fill="white"/>
<path d="M412.616 271.757C412.616 272.2 412.975 272.56 413.418 272.56C413.861 272.56 414.22 272.201 414.22 271.757C414.22 271.314 413.861 270.955 413.418 270.955C412.976 270.955 412.616 271.314 412.616 271.757Z" fill="white"/>
<path d="M425.521 254.062H333.66V257.657H425.521V254.062Z" fill="#EBEBEB"/>
<path d="M329.182 265.108H333.66V246.61H329.182V265.108Z" fill="#E0E0E0"/>
<path d="M425.521 266.9H333.66V285.398H425.521V266.9Z" fill="#EBEBEB"/>
<path d="M420.334 251.468C420.334 251.911 420.693 252.27 421.137 252.27C421.58 252.27 421.939 251.911 421.939 251.468C421.939 251.025 421.58 250.666 421.137 250.666C420.693 250.665 420.334 251.025 420.334 251.468Z" fill="#EBEBEB"/>
<path d="M416.475 251.468C416.475 251.911 416.834 252.27 417.277 252.27C417.72 252.27 418.08 251.911 418.08 251.468C418.08 251.025 417.721 250.666 417.277 250.666C416.835 250.665 416.475 251.025 416.475 251.468Z" fill="white"/>
<path d="M412.616 251.468C412.616 251.911 412.975 252.27 413.418 252.27C413.861 252.27 414.22 251.911 414.22 251.468C414.22 251.025 413.861 250.666 413.418 250.666C412.976 250.665 412.616 251.025 412.616 251.468Z" fill="#EBEBEB"/>
<path d="M425.521 274.351H333.66V277.946H425.521V274.351Z" fill="#EBEBEB"/>
<path d="M329.182 285.397H333.66V266.899H329.182V285.397Z" fill="#E0E0E0"/>
<path d="M425.521 287.189H333.66V305.687H425.521V287.189Z" fill="#EBEBEB"/>
<path d="M420.334 231.179C420.334 231.622 420.693 231.981 421.137 231.981C421.58 231.981 421.939 231.622 421.939 231.179C421.939 230.736 421.58 230.376 421.137 230.376C420.693 230.376 420.334 230.735 420.334 231.179Z" fill="white"/>
<path d="M416.475 231.179C416.475 231.622 416.834 231.981 417.277 231.981C417.72 231.981 418.08 231.622 418.08 231.179C418.08 230.736 417.721 230.376 417.277 230.376C416.835 230.376 416.475 230.735 416.475 231.179Z" fill="white"/>
<path d="M412.616 231.179C412.616 231.622 412.975 231.981 413.418 231.981C413.861 231.981 414.22 231.622 414.22 231.179C414.22 230.736 413.861 230.376 413.418 230.376C412.976 230.376 412.616 230.735 412.616 231.179Z" fill="#EBEBEB"/>
<path d="M425.521 294.64H333.66V298.235H425.521V294.64Z" fill="#EBEBEB"/>
<path d="M329.182 305.687H333.66V287.189H329.182V305.687Z" fill="#E0E0E0"/>
<path d="M425.521 307.478H333.66V325.976H425.521V307.478Z" fill="#EBEBEB"/>
<path d="M420.334 210.889C420.334 211.332 420.693 211.691 421.137 211.691C421.58 211.691 421.939 211.332 421.939 210.889C421.939 210.446 421.58 210.086 421.137 210.086C420.693 210.087 420.334 210.446 420.334 210.889Z" fill="white"/>
<path d="M416.475 210.889C416.475 211.332 416.834 211.691 417.277 211.691C417.72 211.691 418.08 211.332 418.08 210.889C418.08 210.446 417.721 210.086 417.277 210.086C416.835 210.087 416.475 210.446 416.475 210.889Z" fill="#EBEBEB"/>
<path d="M412.616 210.889C412.616 211.332 412.975 211.691 413.418 211.691C413.861 211.691 414.22 211.332 414.22 210.889C414.22 210.446 413.861 210.086 413.418 210.086C412.976 210.087 412.616 210.446 412.616 210.889Z" fill="white"/>
<path d="M425.521 314.929H333.66V318.524H425.521V314.929Z" fill="#EBEBEB"/>
<path d="M329.182 325.976H333.66V307.478H329.182V325.976Z" fill="#E0E0E0"/>
<path d="M425.521 327.767H333.66V346.265H425.521V327.767Z" fill="#EBEBEB"/>
<path d="M420.334 190.6C420.334 191.043 420.693 191.402 421.137 191.402C421.58 191.402 421.939 191.043 421.939 190.6C421.939 190.157 421.58 189.797 421.137 189.797C420.693 189.798 420.334 190.157 420.334 190.6Z" fill="#EBEBEB"/>
<path d="M416.475 190.6C416.475 191.043 416.834 191.402 417.277 191.402C417.72 191.402 418.08 191.043 418.08 190.6C418.08 190.157 417.721 189.797 417.277 189.797C416.835 189.798 416.475 190.157 416.475 190.6Z" fill="white"/>
<path d="M412.616 190.6C412.616 191.043 412.975 191.402 413.418 191.402C413.861 191.402 414.22 191.043 414.22 190.6C414.22 190.157 413.861 189.797 413.418 189.797C412.976 189.798 412.616 190.157 412.616 190.6Z" fill="#EBEBEB"/>
<path d="M425.521 335.219H333.66V338.814H425.521V335.219Z" fill="#EBEBEB"/>
<path d="M329.182 346.265H333.66V327.767H329.182V346.265Z" fill="#E0E0E0"/>
<path d="M425.521 348.056H333.66V366.554H425.521V348.056Z" fill="#EBEBEB"/>
<path d="M420.334 170.311C420.334 170.754 420.693 171.114 421.137 171.114C421.58 171.114 421.939 170.755 421.939 170.311C421.939 169.868 421.58 169.509 421.137 169.509C420.693 169.508 420.334 169.868 420.334 170.311Z" fill="#EBEBEB"/>
<path d="M416.475 170.311C416.475 170.754 416.834 171.114 417.277 171.114C417.72 171.114 418.08 170.755 418.08 170.311C418.08 169.868 417.721 169.509 417.277 169.509C416.835 169.508 416.475 169.868 416.475 170.311Z" fill="#EBEBEB"/>
<path d="M412.616 170.311C412.616 170.754 412.975 171.114 413.418 171.114C413.861 171.114 414.22 170.755 414.22 170.311C414.22 169.868 413.861 169.509 413.418 169.509C412.976 169.508 412.616 169.868 412.616 170.311Z" fill="white"/>
<path d="M425.521 355.508H333.66V359.103H425.521V355.508Z" fill="#EBEBEB"/>
<path d="M329.182 366.555H333.66V348.057H329.182V366.555Z" fill="#E0E0E0"/>
<path d="M265.609 149.609H196.175C192.43 153.354 190.33 155.454 186.584 159.2V372.807C190.329 376.553 192.429 378.652 196.175 382.398H265.609C269.354 378.653 271.454 376.553 275.2 372.807V159.2C271.454 155.455 269.355 153.355 265.609 149.609Z" fill="#E0E0E0"/>
<path d="M186.585 372.808L196.176 382.398H217.709L208.119 372.808H186.585Z" fill="#EBEBEB"/>
<path d="M186.585 159.2L196.176 149.609H217.709L208.119 159.2H186.585Z" fill="#EBEBEB"/>
<path d="M303.824 149.609H217.709C213.964 153.354 211.864 155.454 208.118 159.2V372.807C211.863 376.553 213.963 378.652 217.709 382.398H303.824C307.569 378.653 309.669 376.553 313.415 372.807V159.2C309.67 155.455 307.57 153.355 303.824 149.609Z" fill="#EBEBEB"/>
<path d="M218.93 377.92L212.597 371.587V160.421L218.93 154.087H302.604L308.937 160.421V371.587L302.603 377.92H218.93Z" fill="white"/>
<path d="M308.936 165.454H217.075V183.952H308.936V165.454Z" fill="#EBEBEB"/>
<path d="M303.749 170.311C303.749 169.868 304.108 169.509 304.551 169.509C304.994 169.509 305.353 169.868 305.353 170.311C305.353 170.754 304.994 171.114 304.551 171.114C304.108 171.114 303.749 170.754 303.749 170.311Z" fill="#EBEBEB"/>
<path d="M299.89 170.311C299.89 169.868 300.249 169.509 300.692 169.509C301.135 169.509 301.494 169.868 301.494 170.311C301.494 170.754 301.135 171.114 300.692 171.114C300.25 171.113 299.89 170.754 299.89 170.311Z" fill="white"/>
<path d="M296.032 170.311C296.032 169.868 296.391 169.509 296.834 169.509C297.277 169.509 297.636 169.868 297.636 170.311C297.636 170.754 297.277 171.114 296.834 171.114C296.391 171.113 296.032 170.754 296.032 170.311Z" fill="#EBEBEB"/>
<path d="M308.936 172.905H217.075V176.5H308.936V172.905Z" fill="#EBEBEB"/>
<path d="M212.597 183.951H217.075V165.453H212.597V183.951Z" fill="#E0E0E0"/>
<path d="M308.936 185.743H217.075V204.241H308.936V185.743Z" fill="#EBEBEB"/>
<path d="M303.749 190.6C303.749 190.157 304.108 189.797 304.551 189.797C304.994 189.797 305.353 190.156 305.353 190.6C305.353 191.043 304.994 191.402 304.551 191.402C304.108 191.402 303.749 191.043 303.749 190.6Z" fill="#EBEBEB"/>
<path d="M299.89 190.6C299.89 190.157 300.249 189.797 300.692 189.797C301.135 189.797 301.494 190.156 301.494 190.6C301.494 191.043 301.135 191.402 300.692 191.402C300.25 191.403 299.89 191.043 299.89 190.6Z" fill="white"/>
<path d="M296.032 190.6C296.032 190.157 296.391 189.797 296.834 189.797C297.277 189.797 297.636 190.156 297.636 190.6C297.636 191.043 297.277 191.402 296.834 191.402C296.391 191.403 296.032 191.043 296.032 190.6Z" fill="white"/>
<path d="M308.936 193.194H217.075V196.789H308.936V193.194Z" fill="#EBEBEB"/>
<path d="M212.597 204.24H217.075V185.742H212.597V204.24Z" fill="#E0E0E0"/>
<path d="M308.936 206.032H217.075V224.53H308.936V206.032Z" fill="#EBEBEB"/>
<path d="M303.749 210.889C303.749 210.446 304.108 210.086 304.551 210.086C304.994 210.086 305.353 210.445 305.353 210.889C305.353 211.332 304.994 211.691 304.551 211.691C304.108 211.691 303.749 211.333 303.749 210.889Z" fill="#EBEBEB"/>
<path d="M299.89 210.889C299.89 210.446 300.249 210.086 300.692 210.086C301.135 210.086 301.494 210.445 301.494 210.889C301.494 211.332 301.135 211.691 300.692 211.691C300.25 211.692 299.89 211.333 299.89 210.889Z" fill="#EBEBEB"/>
<path d="M296.032 210.889C296.032 210.446 296.391 210.086 296.834 210.086C297.277 210.086 297.636 210.445 297.636 210.889C297.636 211.332 297.277 211.691 296.834 211.691C296.391 211.692 296.032 211.333 296.032 210.889Z" fill="#EBEBEB"/>
<path d="M308.936 213.483H217.075V217.078H308.936V213.483Z" fill="#EBEBEB"/>
<path d="M212.597 224.53H217.075V206.032H212.597V224.53Z" fill="#E0E0E0"/>
<path d="M308.936 226.321H217.075V244.819H308.936V226.321Z" fill="#EBEBEB"/>
<path d="M303.749 231.179C303.749 230.736 304.108 230.376 304.551 230.376C304.994 230.376 305.353 230.735 305.353 231.179C305.353 231.622 304.994 231.981 304.551 231.981C304.108 231.981 303.749 231.622 303.749 231.179Z" fill="white"/>
<path d="M299.89 231.179C299.89 230.736 300.249 230.376 300.692 230.376C301.135 230.376 301.494 230.735 301.494 231.179C301.494 231.622 301.135 231.981 300.692 231.981C300.25 231.981 299.89 231.622 299.89 231.179Z" fill="white"/>
<path d="M296.032 231.179C296.032 230.736 296.391 230.376 296.834 230.376C297.277 230.376 297.636 230.735 297.636 231.179C297.636 231.622 297.277 231.981 296.834 231.981C296.391 231.981 296.032 231.622 296.032 231.179Z" fill="#EBEBEB"/>
<path d="M308.936 233.772H217.075V237.367H308.936V233.772Z" fill="#EBEBEB"/>
<path d="M212.597 244.819H217.075V226.321H212.597V244.819Z" fill="#E0E0E0"/>
<path d="M308.936 246.61H217.075V265.108H308.936V246.61Z" fill="#EBEBEB"/>
<path d="M303.749 251.468C303.749 251.025 304.108 250.666 304.551 250.666C304.994 250.666 305.353 251.025 305.353 251.468C305.353 251.911 304.994 252.27 304.551 252.27C304.108 252.27 303.749 251.911 303.749 251.468Z" fill="white"/>
<path d="M299.89 251.468C299.89 251.025 300.249 250.666 300.692 250.666C301.135 250.666 301.494 251.025 301.494 251.468C301.494 251.911 301.135 252.27 300.692 252.27C300.25 252.27 299.89 251.911 299.89 251.468Z" fill="white"/>
<path d="M296.032 251.468C296.032 251.025 296.391 250.666 296.834 250.666C297.277 250.666 297.636 251.025 297.636 251.468C297.636 251.911 297.277 252.27 296.834 252.27C296.391 252.27 296.032 251.911 296.032 251.468Z" fill="white"/>
<path d="M308.936 254.062H217.075V257.657H308.936V254.062Z" fill="#EBEBEB"/>
<path d="M212.597 265.108H217.075V246.61H212.597V265.108Z" fill="#E0E0E0"/>
<path d="M308.936 266.9H217.075V285.398H308.936V266.9Z" fill="#EBEBEB"/>
<path d="M303.749 271.757C303.749 271.314 304.108 270.955 304.551 270.955C304.994 270.955 305.353 271.314 305.353 271.757C305.353 272.2 304.994 272.56 304.551 272.56C304.108 272.56 303.749 272.2 303.749 271.757Z" fill="#EBEBEB"/>
<path d="M299.89 271.757C299.89 271.314 300.249 270.955 300.692 270.955C301.135 270.955 301.494 271.314 301.494 271.757C301.494 272.2 301.135 272.56 300.692 272.56C300.25 272.56 299.89 272.2 299.89 271.757Z" fill="white"/>
<path d="M296.032 271.757C296.032 271.314 296.391 270.955 296.834 270.955C297.277 270.955 297.636 271.314 297.636 271.757C297.636 272.2 297.277 272.56 296.834 272.56C296.391 272.56 296.032 272.2 296.032 271.757Z" fill="#EBEBEB"/>
<path d="M308.936 274.351H217.075V277.946H308.936V274.351Z" fill="#EBEBEB"/>
<path d="M212.597 285.397H217.075V266.899H212.597V285.397Z" fill="#E0E0E0"/>
<path d="M308.936 287.189H217.075V305.687H308.936V287.189Z" fill="#EBEBEB"/>
<path d="M303.749 292.046C303.749 291.603 304.108 291.244 304.551 291.244C304.994 291.244 305.353 291.603 305.353 292.046C305.353 292.489 304.994 292.848 304.551 292.848C304.108 292.848 303.749 292.489 303.749 292.046Z" fill="white"/>
<path d="M299.89 292.046C299.89 291.603 300.249 291.244 300.692 291.244C301.135 291.244 301.494 291.603 301.494 292.046C301.494 292.489 301.135 292.848 300.692 292.848C300.25 292.849 299.89 292.489 299.89 292.046Z" fill="white"/>
<path d="M296.032 292.046C296.032 291.603 296.391 291.244 296.834 291.244C297.277 291.244 297.636 291.603 297.636 292.046C297.636 292.489 297.277 292.848 296.834 292.848C296.391 292.849 296.032 292.489 296.032 292.046Z" fill="#EBEBEB"/>
<path d="M308.936 294.64H217.075V298.235H308.936V294.64Z" fill="#EBEBEB"/>
<path d="M212.597 305.687H217.075V287.189H212.597V305.687Z" fill="#E0E0E0"/>
<path d="M308.936 307.478H217.075V325.976H308.936V307.478Z" fill="#EBEBEB"/>
<path d="M303.749 312.336C303.749 311.893 304.108 311.533 304.551 311.533C304.994 311.533 305.353 311.892 305.353 312.336C305.353 312.779 304.994 313.138 304.551 313.138C304.108 313.138 303.749 312.779 303.749 312.336Z" fill="white"/>
<path d="M299.89 312.336C299.89 311.893 300.249 311.533 300.692 311.533C301.135 311.533 301.494 311.892 301.494 312.336C301.494 312.779 301.135 313.138 300.692 313.138C300.25 313.138 299.89 312.779 299.89 312.336Z" fill="#EBEBEB"/>
<path d="M296.032 312.336C296.032 311.893 296.391 311.533 296.834 311.533C297.277 311.533 297.636 311.892 297.636 312.336C297.636 312.779 297.277 313.138 296.834 313.138C296.391 313.138 296.032 312.779 296.032 312.336Z" fill="white"/>
<path d="M308.936 314.929H217.075V318.524H308.936V314.929Z" fill="#EBEBEB"/>
<path d="M212.597 325.976H217.075V307.478H212.597V325.976Z" fill="#E0E0E0"/>
<path d="M308.936 327.767H217.075V346.265H308.936V327.767Z" fill="#EBEBEB"/>
<path d="M303.749 332.625C303.749 332.182 304.108 331.823 304.551 331.823C304.994 331.823 305.353 332.182 305.353 332.625C305.353 333.068 304.994 333.427 304.551 333.427C304.108 333.427 303.749 333.068 303.749 332.625Z" fill="#EBEBEB"/>
<path d="M299.89 332.625C299.89 332.182 300.249 331.823 300.692 331.823C301.135 331.823 301.494 332.182 301.494 332.625C301.494 333.068 301.135 333.427 300.692 333.427C300.25 333.427 299.89 333.068 299.89 332.625Z" fill="white"/>
<path d="M296.032 332.625C296.032 332.182 296.391 331.823 296.834 331.823C297.277 331.823 297.636 332.182 297.636 332.625C297.636 333.068 297.277 333.427 296.834 333.427C296.391 333.427 296.032 333.068 296.032 332.625Z" fill="#EBEBEB"/>
<path d="M308.936 335.219H217.075V338.814H308.936V335.219Z" fill="#EBEBEB"/>
<path d="M212.597 346.265H217.075V327.767H212.597V346.265Z" fill="#E0E0E0"/>
<path d="M308.936 348.056H217.075V366.554H308.936V348.056Z" fill="#EBEBEB"/>
<path d="M303.749 352.914C303.749 352.471 304.108 352.111 304.551 352.111C304.994 352.111 305.353 352.47 305.353 352.914C305.353 353.357 304.994 353.716 304.551 353.716C304.108 353.716 303.749 353.357 303.749 352.914Z" fill="#EBEBEB"/>
<path d="M299.89 352.914C299.89 352.471 300.249 352.111 300.692 352.111C301.135 352.111 301.494 352.47 301.494 352.914C301.494 353.357 301.135 353.716 300.692 353.716C300.25 353.716 299.89 353.357 299.89 352.914Z" fill="#EBEBEB"/>
<path d="M296.032 352.914C296.032 352.471 296.391 352.111 296.834 352.111C297.277 352.111 297.636 352.47 297.636 352.914C297.636 353.357 297.277 353.716 296.834 353.716C296.391 353.716 296.032 353.357 296.032 352.914Z" fill="white"/>
<path d="M308.936 355.508H217.075V359.103H308.936V355.508Z" fill="#EBEBEB"/>
<path d="M212.597 366.555H217.075V348.057H212.597V366.555Z" fill="#E0E0E0"/>
<path d="M149.024 149.609H79.591C75.846 153.354 73.746 155.454 70 159.2V372.807C73.745 376.553 75.845 378.652 79.591 382.398H149.025C152.77 378.653 154.87 376.553 158.616 372.807V159.2C154.87 155.455 152.77 153.355 149.024 149.609Z" fill="#E0E0E0"/>
<path d="M70 372.808L79.591 382.398H101.125L91.534 372.808H70Z" fill="#EBEBEB"/>
<path d="M70 159.2L79.591 149.609H101.125L91.534 159.2H70Z" fill="#EBEBEB"/>
<path d="M187.24 149.609H101.125C97.3792 153.354 95.2802 155.454 91.5342 159.2V372.807C95.2792 376.553 97.3792 378.652 101.125 382.398H187.24C190.986 378.653 193.085 376.553 196.831 372.807V159.2C193.085 155.455 190.985 153.355 187.24 149.609Z" fill="#EBEBEB"/>
<path d="M102.346 377.92L96.0122 371.587V160.421L102.346 154.087H186.019L192.352 160.421V371.587L186.018 377.92H102.346Z" fill="white"/>
<path d="M192.352 165.454H100.491V183.952H192.352V165.454Z" fill="#EBEBEB"/>
<path d="M192.352 172.905H100.491V176.5H192.352V172.905Z" fill="#EBEBEB"/>
<path d="M96.0127 183.951H100.491V165.453H96.0127V183.951Z" fill="#E0E0E0"/>
<path d="M192.352 185.743H100.491V204.241H192.352V185.743Z" fill="#EBEBEB"/>
<path d="M192.352 193.194H100.491V196.789H192.352V193.194Z" fill="#EBEBEB"/>
<path d="M96.0127 204.24H100.491V185.742H96.0127V204.24Z" fill="#E0E0E0"/>
<path d="M192.352 206.032H100.491V224.53H192.352V206.032Z" fill="#EBEBEB"/>
<path d="M192.352 213.483H100.491V217.078H192.352V213.483Z" fill="#EBEBEB"/>
<path d="M96.0127 224.53H100.491V206.032H96.0127V224.53Z" fill="#E0E0E0"/>
<path d="M192.352 226.321H100.491V244.819H192.352V226.321Z" fill="#EBEBEB"/>
<path d="M192.352 233.772H100.491V237.367H192.352V233.772Z" fill="#EBEBEB"/>
<path d="M96.0127 244.819H100.491V226.321H96.0127V244.819Z" fill="#E0E0E0"/>
<path d="M192.352 246.61H100.491V265.108H192.352V246.61Z" fill="#EBEBEB"/>
<path d="M192.352 254.062H100.491V257.657H192.352V254.062Z" fill="#EBEBEB"/>
<path d="M96.0127 265.108H100.491V246.61H96.0127V265.108Z" fill="#E0E0E0"/>
<path d="M192.352 266.9H100.491V285.398H192.352V266.9Z" fill="#EBEBEB"/>
<path d="M192.352 274.351H100.491V277.946H192.352V274.351Z" fill="#EBEBEB"/>
<path d="M96.0127 285.397H100.491V266.899H96.0127V285.397Z" fill="#E0E0E0"/>
<path d="M192.352 287.189H100.491V305.687H192.352V287.189Z" fill="#EBEBEB"/>
<path d="M192.352 294.64H100.491V298.235H192.352V294.64Z" fill="#EBEBEB"/>
<path d="M96.0127 305.687H100.491V287.189H96.0127V305.687Z" fill="#E0E0E0"/>
<path d="M192.352 307.478H100.491V325.976H192.352V307.478Z" fill="#EBEBEB"/>
<path d="M192.352 314.929H100.491V318.524H192.352V314.929Z" fill="#EBEBEB"/>
<path d="M96.0127 325.976H100.491V307.478H96.0127V325.976Z" fill="#E0E0E0"/>
<path d="M192.352 327.767H100.491V346.265H192.352V327.767Z" fill="#EBEBEB"/>
<path d="M192.352 335.219H100.491V338.814H192.352V335.219Z" fill="#EBEBEB"/>
<path d="M96.0127 346.265H100.491V327.767H96.0127V346.265Z" fill="#E0E0E0"/>
<path d="M192.352 348.056H100.491V366.554H192.352V348.056Z" fill="#EBEBEB"/>
<path d="M187.164 170.311C187.164 170.754 187.523 171.114 187.966 171.114C188.409 171.114 188.769 170.755 188.769 170.311C188.769 169.868 188.41 169.509 187.966 169.509C187.524 169.508 187.164 169.868 187.164 170.311Z" fill="#EBEBEB"/>
<path d="M183.306 170.311C183.306 170.754 183.665 171.114 184.108 171.114C184.551 171.114 184.91 170.755 184.91 170.311C184.91 169.868 184.551 169.509 184.108 169.509C183.665 169.508 183.306 169.868 183.306 170.311Z" fill="#EBEBEB"/>
<path d="M179.447 170.311C179.447 170.754 179.806 171.114 180.25 171.114C180.693 171.114 181.052 170.755 181.052 170.311C181.052 169.868 180.693 169.509 180.25 169.509C179.806 169.508 179.447 169.868 179.447 170.311Z" fill="white"/>
<path d="M192.352 355.508H100.491V359.103H192.352V355.508Z" fill="#EBEBEB"/>
<path d="M96.0127 366.555H100.491V348.057H96.0127V366.555Z" fill="#E0E0E0"/>
<path d="M182.828 95.1798C182.765 87.0378 176.148 80.4568 167.992 80.4568C166.027 80.4568 164.154 80.8418 162.438 81.5348C159.524 75.5738 153.403 71.4668 146.321 71.4668C137.756 71.4668 130.599 77.4728 128.819 85.5018C120.764 86.0198 114.39 92.7128 114.39 100.899C114.39 109.422 121.3 116.332 129.823 116.332H178.932C184.974 116.332 189.872 111.434 189.872 105.392C189.872 100.725 186.943 96.7508 182.828 95.1798Z" fill="#EBEBEB"/>
<path d="M422.271 80.504C422.188 69.731 413.432 61.022 402.64 61.022C400.04 61.022 397.561 61.532 395.291 62.449C391.435 54.561 383.336 49.127 373.965 49.127C362.632 49.127 353.162 57.074 350.807 67.698C340.149 68.384 331.715 77.24 331.715 88.072C331.715 99.35 340.858 108.493 352.136 108.493H417.117C425.112 108.493 431.593 102.012 431.593 94.017C431.592 87.841 427.717 82.583 422.271 80.504Z" fill="#EBEBEB"/>
<path d="M250 427.561C357.082 427.561 443.889 422.492 443.889 416.238C443.889 409.985 357.082 404.915 250 404.915C142.918 404.915 56.1108 409.985 56.1108 416.238C56.1108 422.492 142.918 427.561 250 427.561Z" fill="#EBEBEB"/>
<path d="M86.5231 401.469V399.952H77.5671C77.1481 399.952 76.8091 400.292 76.8091 400.71C76.8091 401.129 77.1491 401.468 77.5671 401.468H86.5231V401.469Z" fill="#4575CB"/>
<path d="M86.5231 407.97V406.453H77.5671C77.1481 406.453 76.8091 406.792 76.8091 407.211C76.8091 407.63 77.1491 407.969 77.5671 407.969H86.5231V407.97Z" fill="#4575CB"/>
<path d="M83.3011 396.242C82.6031 396.242 82.0371 396.808 82.0371 397.506V410.723C82.0371 411.421 82.6031 411.987 83.3011 411.987C83.9991 411.987 84.5651 411.421 84.5651 410.723V397.506C84.5651 396.808 83.9991 396.242 83.3011 396.242Z" fill="#263238"/>
<path d="M86.8803 398.087H83.3013V410.142H86.8803C90.2093 410.142 92.9073 407.443 92.9073 404.115C92.9073 400.786 90.2083 398.087 86.8803 398.087Z" fill="#263238"/>
<path d="M115.121 412.358C112.493 412.358 110.014 412.062 107.4 411.75L102.996 411.225C102.296 411.256 101.588 411.305 100.871 411.378C99.855 411.482 98.821 411.646 97.821 411.804C95.931 412.102 93.978 412.414 92.014 412.345C91.643 412.332 91.215 412.303 90.819 412.108C90.317 411.86 90.001 411.383 90.013 410.893C90.023 410.433 90.319 409.995 90.784 409.752C91.147 409.56 91.549 409.512 91.897 409.481C94.137 409.288 96.371 409.553 98.532 409.812L103.03 410.349C104.849 410.269 106.608 410.312 108.325 410.354C110.509 410.405 112.767 410.459 115.126 410.267C117.128 410.106 118.553 409.432 118.631 409.133C118.201 408.611 117.093 408.449 114.825 408.162C113.141 407.948 111.002 407.891 108.736 407.83C106.948 407.781 105.1 407.732 103.209 407.605C99.436 407.353 94.574 406.753 90.443 404.336C90.235 404.214 90.165 403.946 90.287 403.738C90.409 403.531 90.676 403.459 90.885 403.582C94.859 405.907 99.59 406.487 103.268 406.733C105.142 406.858 106.981 406.908 108.76 406.956C111.048 407.017 113.209 407.075 114.936 407.294C116.266 407.463 117.203 407.589 117.887 407.773C117.849 407.723 117.81 407.673 117.771 407.624C117.445 407.201 117.107 406.765 116.808 406.301C116.435 405.722 116.021 405.039 115.851 404.261C115.655 403.366 115.84 402.479 116.348 401.888C116.983 401.149 118.004 400.963 118.716 400.887C120.823 400.664 122.922 400.975 124.952 401.275C125.19 401.31 125.355 401.532 125.32 401.77C125.284 402.009 125.065 402.184 124.824 402.138C122.849 401.846 120.807 401.546 118.807 401.756C118.243 401.816 117.442 401.953 117.01 402.457C116.68 402.841 116.565 403.445 116.703 404.073C116.843 404.71 117.208 405.312 117.54 405.826C117.82 406.26 118.146 406.681 118.461 407.089C118.665 407.353 118.868 407.616 119.063 407.886L119.164 408.025C119.61 408.634 120.221 409.468 120.094 410.351C119.819 412.274 117.102 412.326 115.796 412.35C115.568 412.356 115.343 412.358 115.121 412.358ZM111.041 411.275C112.598 411.421 114.145 411.507 115.723 411.479C116.841 411.458 119.056 411.415 119.226 410.228C119.244 410.1 119.23 409.965 119.193 409.827C118.445 410.606 116.482 411.034 115.193 411.139C113.77 411.254 112.392 411.278 111.041 411.275ZM93.504 410.289C92.992 410.289 92.48 410.307 91.97 410.352C91.695 410.375 91.408 410.409 91.187 410.525C91.011 410.617 90.887 410.776 90.884 410.913C90.881 411.059 91.015 411.231 91.203 411.324C91.443 411.442 91.749 411.462 92.042 411.472C93.926 411.54 95.834 411.233 97.684 410.941C98.104 410.875 98.53 410.807 98.959 410.744L98.427 410.68C96.812 410.486 95.154 410.289 93.504 410.289Z" fill="#263238"/>
<path d="M220.113 171.014H130.324C126.419 174.919 124.229 177.109 120.324 181.014V403.735C124.229 407.64 126.419 409.83 130.324 413.735H220.113C224.018 409.83 226.208 407.64 230.113 403.735V181.014C226.208 177.109 224.019 174.92 220.113 171.014Z" fill="black"/>
<path d="M104.161 190.404L102.138 193.155L97.0029 185.818L100.854 200.203L102.877 197.453L108.011 204.79L104.161 190.404Z" fill="#4575CB"/>
<path d="M181.059 142.201L178.022 143.762L176.692 134.906L173.734 149.501L176.77 147.94L178.1 156.796L181.059 142.201Z" fill="#4575CB"/>
<path d="M206.645 146.198L202.027 145.124L208.576 134.553L192.331 147.347L196.949 148.421L190.401 158.992L206.645 146.198Z" fill="#4575CB"/>
<path opacity="0.7" d="M120.324 403.736L130.324 413.736H170.17L160.17 403.736H120.324Z" fill="#263238"/>
<path opacity="0.7" d="M120.324 181.014L130.324 171.014H170.17L160.17 181.014H120.324Z" fill="#263238"/>
<path d="M259.959 171.014H170.17C166.265 174.919 164.075 177.109 160.17 181.014V403.735C164.075 407.64 166.265 409.83 170.17 413.735H259.959C263.864 409.83 266.054 407.64 269.959 403.735V181.014C266.054 177.109 263.864 174.92 259.959 171.014Z" fill="#263238"/>
<path opacity="0.6" d="M171.443 409.066L164.839 402.463V182.287L171.443 175.684H258.686L265.29 182.287V402.463L258.686 409.066H171.443Z" fill="#4575CB"/>
<path d="M265.29 187.535H169.509V206.822H265.29V187.535Z" fill="#263238"/>
<path d="M259.881 192.599C259.881 192.137 260.256 191.762 260.718 191.762C261.18 191.762 261.555 192.137 261.555 192.599C261.555 193.061 261.18 193.436 260.718 193.436C260.256 193.436 259.881 193.061 259.881 192.599Z" fill="#4575CB"/>
<path d="M255.857 192.599C255.857 192.137 256.232 191.762 256.694 191.762C257.156 191.762 257.531 192.137 257.531 192.599C257.531 193.061 257.156 193.436 256.694 193.436C256.232 193.436 255.857 193.061 255.857 192.599Z" fill="white"/>
<path d="M251.834 192.599C251.834 192.137 252.209 191.762 252.671 191.762C253.133 191.762 253.508 192.137 253.508 192.599C253.508 193.061 253.133 193.436 252.671 193.436C252.209 193.436 251.834 193.061 251.834 192.599Z" fill="#4575CB"/>
<path d="M265.29 195.304H169.509V199.053H265.29V195.304Z" fill="#4575CB"/>
<path d="M164.84 206.821H169.509V187.534H164.84V206.821Z" fill="black"/>
<path d="M265.29 208.689H169.509V227.976H265.29V208.689Z" fill="#263238"/>
<path d="M260.717 214.591C261.179 214.591 261.554 214.216 261.554 213.754C261.554 213.292 261.179 212.917 260.717 212.917C260.255 212.917 259.88 213.292 259.88 213.754C259.88 214.216 260.255 214.591 260.717 214.591Z" fill="#4575CB"/>
<path d="M256.694 214.591C257.156 214.591 257.531 214.216 257.531 213.754C257.531 213.292 257.156 212.917 256.694 212.917C256.232 212.917 255.857 213.292 255.857 213.754C255.857 214.216 256.232 214.591 256.694 214.591Z" fill="white"/>
<path d="M252.671 214.591C253.133 214.591 253.508 214.216 253.508 213.754C253.508 213.292 253.133 212.917 252.671 212.917C252.209 212.917 251.834 213.292 251.834 213.754C251.834 214.216 252.209 214.591 252.671 214.591Z" fill="white"/>
<path d="M265.29 216.459H169.509V220.208H265.29V216.459Z" fill="#4575CB"/>
<path d="M164.84 227.977H169.509V208.69H164.84V227.977Z" fill="black"/>
<path d="M265.29 229.844H169.509V249.131H265.29V229.844Z" fill="#263238"/>
<path d="M260.717 235.746C261.179 235.746 261.554 235.372 261.554 234.909C261.554 234.447 261.179 234.072 260.717 234.072C260.255 234.072 259.88 234.447 259.88 234.909C259.88 235.372 260.255 235.746 260.717 235.746Z" fill="#4575CB"/>
<path d="M256.694 235.746C257.156 235.746 257.531 235.372 257.531 234.909C257.531 234.447 257.156 234.072 256.694 234.072C256.232 234.072 255.857 234.447 255.857 234.909C255.857 235.372 256.232 235.746 256.694 235.746Z" fill="#4575CB"/>
<path d="M252.671 235.746C253.133 235.746 253.508 235.372 253.508 234.909C253.508 234.447 253.133 234.072 252.671 234.072C252.209 234.072 251.834 234.447 251.834 234.909C251.834 235.372 252.209 235.746 252.671 235.746Z" fill="#4575CB"/>
<path d="M265.29 237.613H169.509V241.362H265.29V237.613Z" fill="#4575CB"/>
<path d="M164.84 249.132H169.509V229.845H164.84V249.132Z" fill="black"/>
<path d="M265.29 250.999H169.509V270.286H265.29V250.999Z" fill="#263238"/>
<path d="M260.717 256.901C261.179 256.901 261.554 256.526 261.554 256.064C261.554 255.602 261.179 255.227 260.717 255.227C260.255 255.227 259.88 255.602 259.88 256.064C259.88 256.526 260.255 256.901 260.717 256.901Z" fill="white"/>
<path d="M256.694 256.901C257.156 256.901 257.531 256.526 257.531 256.064C257.531 255.602 257.156 255.227 256.694 255.227C256.232 255.227 255.857 255.602 255.857 256.064C255.857 256.526 256.232 256.901 256.694 256.901Z" fill="white"/>
<path d="M252.671 256.901C253.133 256.901 253.508 256.526 253.508 256.064C253.508 255.602 253.133 255.227 252.671 255.227C252.209 255.227 251.834 255.602 251.834 256.064C251.834 256.526 252.209 256.901 252.671 256.901Z" fill="#4575CB"/>
<path d="M265.29 258.768H169.509V262.517H265.29V258.768Z" fill="#4575CB"/>
<path d="M164.84 270.287H169.509V251H164.84V270.287Z" fill="black"/>
<path d="M265.29 272.154H169.509V291.441H265.29V272.154Z" fill="#263238"/>
<path d="M259.881 277.219C259.881 276.757 260.256 276.382 260.718 276.382C261.18 276.382 261.555 276.757 261.555 277.219C261.555 277.681 261.18 278.056 260.718 278.056C260.256 278.056 259.881 277.681 259.881 277.219Z" fill="white"/>
<path d="M255.857 277.219C255.857 276.757 256.232 276.382 256.694 276.382C257.156 276.382 257.531 276.757 257.531 277.219C257.531 277.681 257.156 278.056 256.694 278.056C256.232 278.056 255.857 277.681 255.857 277.219Z" fill="white"/>
<path d="M251.834 277.219C251.834 276.757 252.209 276.382 252.671 276.382C253.133 276.382 253.508 276.757 253.508 277.219C253.508 277.681 253.133 278.056 252.671 278.056C252.209 278.056 251.834 277.681 251.834 277.219Z" fill="white"/>
<path d="M265.29 279.923H169.509V283.672H265.29V279.923Z" fill="#4575CB"/>
<path d="M164.84 291.441H169.509V272.154H164.84V291.441Z" fill="black"/>
<path d="M265.29 293.309H169.509V312.596H265.29V293.309Z" fill="#263238"/>
<path d="M259.881 298.374C259.881 297.912 260.256 297.537 260.718 297.537C261.18 297.537 261.555 297.912 261.555 298.374C261.555 298.836 261.18 299.211 260.718 299.211C260.256 299.211 259.881 298.836 259.881 298.374Z" fill="#4575CB"/>
<path d="M255.857 298.374C255.857 297.912 256.232 297.537 256.694 297.537C257.156 297.537 257.531 297.912 257.531 298.374C257.531 298.836 257.156 299.211 256.694 299.211C256.232 299.211 255.857 298.836 255.857 298.374Z" fill="white"/>
<path d="M251.834 298.374C251.834 297.912 252.209 297.537 252.671 297.537C253.133 297.537 253.508 297.912 253.508 298.374C253.508 298.836 253.133 299.211 252.671 299.211C252.209 299.211 251.834 298.836 251.834 298.374Z" fill="#4575CB"/>
<path d="M265.29 301.078H169.509V304.827H265.29V301.078Z" fill="#4575CB"/>
<path d="M164.84 312.596H169.509V293.309H164.84V312.596Z" fill="black"/>
<path d="M265.29 314.464H169.509V333.751H265.29V314.464Z" fill="#263238"/>
<path d="M260.717 320.366C261.179 320.366 261.554 319.992 261.554 319.529C261.554 319.067 261.179 318.692 260.717 318.692C260.255 318.692 259.88 319.067 259.88 319.529C259.88 319.992 260.255 320.366 260.717 320.366Z" fill="white"/>
<path d="M256.694 320.366C257.156 320.366 257.531 319.992 257.531 319.529C257.531 319.067 257.156 318.692 256.694 318.692C256.232 318.692 255.857 319.067 255.857 319.529C255.857 319.992 256.232 320.366 256.694 320.366Z" fill="white"/>
<path d="M252.671 320.366C253.133 320.366 253.508 319.992 253.508 319.529C253.508 319.067 253.133 318.692 252.671 318.692C252.209 318.692 251.834 319.067 251.834 319.529C251.834 319.992 252.209 320.366 252.671 320.366Z" fill="#4575CB"/>
<path d="M265.29 322.233H169.509V325.982H265.29V322.233Z" fill="#4575CB"/>
<path d="M164.84 333.751H169.509V314.464H164.84V333.751Z" fill="black"/>
<path d="M265.29 335.619H169.509V354.906H265.29V335.619Z" fill="#263238"/>
<path d="M260.717 341.52C261.179 341.52 261.554 341.145 261.554 340.683C261.554 340.221 261.179 339.846 260.717 339.846C260.255 339.846 259.88 340.221 259.88 340.683C259.88 341.145 260.255 341.52 260.717 341.52Z" fill="white"/>
<path d="M256.694 341.52C257.156 341.52 257.531 341.145 257.531 340.683C257.531 340.221 257.156 339.846 256.694 339.846C256.232 339.846 255.857 340.221 255.857 340.683C255.857 341.145 256.232 341.52 256.694 341.52Z" fill="#4575CB"/>
<path d="M252.671 341.52C253.133 341.52 253.508 341.145 253.508 340.683C253.508 340.221 253.133 339.846 252.671 339.846C252.209 339.846 251.834 340.221 251.834 340.683C251.834 341.145 252.209 341.52 252.671 341.52Z" fill="white"/>
<path d="M265.29 343.388H169.509V347.137H265.29V343.388Z" fill="#4575CB"/>
<path d="M164.84 354.906H169.509V335.619H164.84V354.906Z" fill="black"/>
<path d="M265.29 356.774H169.509V376.061H265.29V356.774Z" fill="#263238"/>
<path d="M260.717 362.675C261.179 362.675 261.554 362.301 261.554 361.838C261.554 361.376 261.179 361.001 260.717 361.001C260.255 361.001 259.88 361.376 259.88 361.838C259.88 362.301 260.255 362.675 260.717 362.675Z" fill="#4575CB"/>
<path d="M256.694 362.675C257.156 362.675 257.531 362.301 257.531 361.838C257.531 361.376 257.156 361.001 256.694 361.001C256.232 361.001 255.857 361.376 255.857 361.838C255.857 362.301 256.232 362.675 256.694 362.675Z" fill="white"/>
<path d="M252.671 362.675C253.133 362.675 253.508 362.301 253.508 361.838C253.508 361.376 253.133 361.001 252.671 361.001C252.209 361.001 251.834 361.376 251.834 361.838C251.834 362.301 252.209 362.675 252.671 362.675Z" fill="#4575CB"/>
<path d="M265.29 364.543H169.509V368.292H265.29V364.543Z" fill="#4575CB"/>
<path d="M164.84 376.061H169.509V356.774H164.84V376.061Z" fill="black"/>
<path d="M265.29 377.928H169.509V397.215H265.29V377.928Z" fill="#263238"/>
<path d="M260.717 383.83C261.179 383.83 261.554 383.456 261.554 382.993C261.554 382.531 261.179 382.156 260.717 382.156C260.255 382.156 259.88 382.531 259.88 382.993C259.88 383.456 260.255 383.83 260.717 383.83Z" fill="#4575CB"/>
<path d="M256.694 383.83C257.156 383.83 257.531 383.456 257.531 382.993C257.531 382.531 257.156 382.156 256.694 382.156C256.232 382.156 255.857 382.531 255.857 382.993C255.857 383.456 256.232 383.83 256.694 383.83Z" fill="#4575CB"/>
<path d="M252.671 383.83C253.133 383.83 253.508 383.456 253.508 382.993C253.508 382.531 253.133 382.156 252.671 382.156C252.209 382.156 251.834 382.531 251.834 382.993C251.834 383.456 252.209 383.83 252.671 383.83Z" fill="white"/>
<path d="M265.29 385.698H169.509V389.447H265.29V385.698Z" fill="#4575CB"/>
<path d="M164.84 397.216H169.509V377.929H164.84V397.216Z" fill="black"/>
<path opacity="0.7" d="M171.443 409.066L164.839 402.463V182.287L171.443 175.684H223.121L229.724 182.287V402.463L223.12 409.066H171.443Z" fill="#4575CB"/>
<path d="M223.12 409.066L229.724 402.463V182.287L223.121 175.684H225.706L231.375 181.354V403.397L225.705 409.066H223.121H223.12Z" fill="#4575CB"/>
<path d="M358.177 179.71C360.357 183.968 362.283 188.203 364.056 192.625C364.944 194.824 365.776 197.07 366.539 199.374C367.317 201.677 368.009 204.031 368.526 206.693L368.624 207.189L368.673 207.455L368.725 207.829C368.756 208.075 368.791 208.334 368.809 208.569L368.836 209.225C368.859 210.092 368.806 210.836 368.73 211.561C368.563 212.989 368.295 214.267 367.999 215.511C367.414 217.992 366.615 220.282 365.802 222.545C364.116 227.052 362.15 231.305 359.865 235.503C359.14 236.834 357.474 237.326 356.143 236.601C355.032 235.996 354.506 234.735 354.783 233.561L354.799 233.498C355.845 229.082 356.908 224.6 357.8 220.237C358.26 218.062 358.628 215.878 358.89 213.818C359.013 212.792 359.094 211.783 359.088 210.907C359.082 210.48 359.072 210.068 359.024 209.783L358.993 209.575L358.953 209.459L358.894 209.249L358.79 208.902C358.252 207.068 357.487 205.028 356.66 203.003C355.817 200.978 354.944 198.93 354.015 196.883C352.175 192.805 350.231 188.649 348.336 184.619L348.307 184.557C347.014 181.808 348.194 178.532 350.943 177.239C353.63 175.974 356.83 177.085 358.177 179.71Z" fill="#FFBE9D"/>
<path d="M353.326 234.888L356.745 229.85L360.127 228.826C361.693 230.73 361.235 233.655 360.781 235.338H360.782L359.798 241.597C359.613 242.773 358.687 243.676 357.495 243.844L355.268 244.158C353.614 244.391 352.105 243.186 351.964 241.522L351.872 240.436C351.708 238.475 352.22 236.517 353.326 234.888Z" fill="#FFBE9D"/>
<path d="M347.764 248.4C348.599 247.409 348.986 246.19 348.947 244.989L365.772 237.182C365.815 237.22 365.857 237.259 365.901 237.296C368.03 239.089 371.211 238.817 373.006 236.688C373.39 236.234 373.678 235.732 373.875 235.205L370.217 235.7C369.247 235.832 368.364 235.125 368.28 234.149L368.172 232.889C368.089 231.914 368.838 231.066 369.817 231.031L373.506 230.896C373.223 230.41 372.854 229.964 372.398 229.582C370.267 227.789 367.086 228.061 365.293 230.19C364.458 231.181 364.071 232.4 364.11 233.601L347.285 241.408C347.243 241.37 347.2 241.331 347.156 241.294C345.027 239.501 341.846 239.773 340.051 241.902C339.667 242.356 339.379 242.858 339.182 243.385L342.84 242.89C343.81 242.759 344.693 243.465 344.777 244.441L344.885 245.702C344.968 246.676 344.219 247.525 343.24 247.56L339.551 247.695C339.834 248.181 340.203 248.627 340.659 249.009C342.789 250.801 345.971 250.529 347.764 248.4Z" fill="#263238"/>
<path opacity="0.1" d="M348.61 242.968C348.374 242.461 348.595 241.858 349.102 241.623L362.563 235.377C363.071 235.141 363.673 235.362 363.908 235.869C364.144 236.377 363.923 236.979 363.416 237.214L349.955 243.46C349.448 243.696 348.846 243.476 348.61 242.968Z" fill="white"/>
<path d="M346.335 169.276C352.361 170.605 355.302 173.683 361.128 183.378C357.83 188.267 349.755 192.5 349.755 192.5L346.262 188.476C341.877 180.348 346.335 169.276 346.335 169.276Z" fill="#263238"/>
<path opacity="0.2" d="M344.341 180.347C344.371 183.057 344.881 185.917 346.261 188.477L349.751 192.497C349.751 192.497 351.021 191.827 352.771 190.717C349.91 185.018 347.68 182.148 344.341 180.347Z" fill="black"/>
<path d="M318.553 178.583L318.444 179.213L318.345 179.69L318.13 180.58C317.975 181.155 317.795 181.711 317.599 182.255C317.211 183.346 316.753 184.399 316.229 185.424C315.172 187.466 313.823 189.384 312.203 191.067C310.596 192.762 308.717 194.206 306.703 195.342C304.689 196.481 302.54 197.291 300.392 197.83L300.039 197.919C297.445 198.57 294.815 196.995 294.163 194.401C294.104 194.168 294.062 193.907 294.039 193.675C293.832 191.471 294.031 189.485 294.395 187.642C294.761 185.799 295.279 184.087 295.865 182.445C297.053 179.174 298.572 176.198 300.194 173.342C301.84 170.498 303.619 167.787 305.515 165.179C307.446 162.578 309.381 160.078 311.589 157.635C312.601 156.514 314.33 156.426 315.451 157.438C316.428 158.321 316.62 159.748 315.983 160.842L315.941 160.913C314.434 163.502 312.891 166.208 311.507 168.911C310.095 171.611 308.76 174.333 307.583 177.072C306.388 179.798 305.376 182.564 304.641 185.248C303.931 187.896 303.564 190.62 303.898 192.469L297.545 188.315C298.895 187.797 300.118 187.132 301.234 186.383C302.33 185.603 303.311 184.717 304.167 183.71C305.012 182.695 305.759 181.581 306.363 180.367C306.673 179.766 306.948 179.141 307.174 178.511C307.293 178.197 307.384 177.88 307.481 177.578L307.612 177.142L307.664 176.951C307.675 176.917 307.699 176.794 307.683 176.907C308.146 173.905 310.954 171.846 313.957 172.309C316.957 172.773 319.016 175.581 318.553 178.583Z" fill="#FFBE9D"/>
<path d="M321.086 177.835C321.711 174.072 319.066 169.557 319.066 169.557C313.104 169.854 307.355 171.305 301.83 182.609C303.159 188.912 311.506 193.351 311.506 193.351L317.405 185.711C317.405 185.711 320.461 181.598 321.086 177.835Z" fill="#263238"/>
<path d="M313.23 154.879L314.893 153.081C315.611 152.305 316.505 151.714 317.5 151.358L319.077 150.794C320.852 150.159 322.775 151.259 323.127 153.111L323.522 155.185C323.818 156.739 322.885 158.263 321.367 158.706L318.94 159.415C318.94 159.415 316.043 164.264 310.397 162.069C310.387 159.43 311.402 156.854 313.23 154.879Z" fill="#FFBE9D"/>
<path d="M356.827 398.086H348.509C348.509 398.086 348.915 404.184 348.884 407.794L356.217 408.669C355.592 404.669 356.827 398.086 356.827 398.086Z" fill="#FFBE9D"/>
<path d="M320.171 226.933C320.171 226.933 335.103 290.203 339.76 315.916C344.651 342.921 347.982 397.09 347.967 399.065C350.65 398.544 355.009 398.419 357.117 399.065C357.117 399.065 367.4 335.37 358.09 311.721C354.561 266.877 359.133 241.512 350.133 226.932L320.171 226.933Z" fill="#4575CB"/>
<path opacity="0.2" d="M339.18 246.547C336.74 236.577 328.46 237.537 323.07 239.367C326.43 253.817 332 278.147 336.07 297.447C341.85 283.587 342.48 260.007 339.18 246.547Z" fill="black"/>
<path d="M303.844 397.044C303.091 406.711 295.24 417.113 295.24 417.113L307.353 414.011L312.448 406.427C312.652 403.45 312.661 401.002 313.578 397.877L303.844 397.044Z" fill="#FFBE9D"/>
<path d="M308.023 226.933C308.023 226.933 310.134 294.245 309.578 313.914C308.808 341.186 303.091 399.065 303.091 399.065C307.428 398.622 311.176 398.488 313.578 399.065C313.578 399.065 331.544 352.212 329.467 314.173C333.967 278.92 349.134 246.544 339.76 226.933H308.023Z" fill="#4575CB"/>
<path d="M340.065 150.96C338.886 156.063 337.56 165.414 341.011 168.819C341.011 168.819 337.159 175.572 328.35 179.206C321.673 174.929 325.151 168.82 325.151 168.82C330.889 167.461 330.89 163.239 330.038 159.274L340.065 150.96Z" fill="#FFBE9D"/>
<path d="M341.067 163.572C341.067 163.572 329.468 161.993 323.765 166.726C323.633 168.697 322.384 169.882 322.384 169.882C328.612 171.256 334.923 171.538 341.311 170.809C342.817 168.221 341.067 163.572 341.067 163.572Z" fill="#4575CB"/>
<path d="M309.223 180.805C309.84 196.814 306.318 221.128 308.023 226.934C325.184 228.676 338.594 228.378 350.134 226.934C352.157 220.605 347.368 201.8 352.843 179.434C354.059 174.464 350.721 169.707 345.688 169.181C344.21 169.027 342.632 168.898 341.012 168.819C335.144 168.536 330.335 168.348 325.151 168.82C323.13 169.004 321.026 169.272 319.065 169.558C313.487 170.371 309.006 175.203 309.223 180.805Z" fill="#263238"/>
<path d="M321.237 142.384C321.172 143.079 320.754 143.62 320.304 143.593C319.854 143.566 319.542 142.98 319.608 142.284C319.673 141.589 320.091 141.048 320.541 141.075C320.99 141.103 321.302 141.689 321.237 142.384Z" fill="#263238"/>
<path d="M320.736 141.126L319.128 140.544C319.128 140.544 319.853 141.9 320.736 141.126Z" fill="#263238"/>
<path d="M320.345 137.82C320.248 137.796 320.16 137.736 320.105 137.644C319.99 137.454 320.054 137.201 320.246 137.079C322.175 135.855 323.868 136.607 323.939 136.641C324.14 136.734 324.224 136.975 324.125 137.181C324.027 137.387 323.784 137.479 323.583 137.388C323.517 137.358 322.196 136.794 320.662 137.767C320.562 137.829 320.448 137.845 320.345 137.82Z" fill="#263238"/>
<path d="M321.103 144.298C321.103 144.298 319.654 147.22 318.232 148.585C319.06 149.497 320.642 149.2 320.642 149.2L321.103 144.298Z" fill="#EB996E"/>
<path d="M344.733 140.948C343.411 149.454 343.031 153.076 338.35 157.198C331.309 163.397 321.277 160.258 320.061 151.612C318.967 143.83 321.312 131.227 329.905 128.336C338.371 125.486 346.054 132.442 344.733 140.948Z" fill="#FFBE9D"/>
<path d="M323.518 131.381C321.811 134.75 325.176 141.001 327.443 143.564C323.414 147.892 319.398 155.36 324.714 159.836C329.564 163.919 355.631 163.878 350.561 155.1C355.033 149.6 347.589 148.819 351.142 138.137C353.727 130.366 348.855 128.206 344.486 128.953C339.507 122.65 327.071 124.37 323.518 131.381Z" fill="#263238"/>
<path d="M325.434 134.906C325.434 134.906 333.487 141.511 342.766 142.588C347.741 143.165 350.271 143.103 350.498 142.343C350.725 141.583 351.161 139.016 351.161 139.016L325.434 134.906Z" fill="#E0E0E0"/>
<path d="M318.589 133.182C321.03 135.109 339.466 140.384 351.9 139.223C352.023 138.482 351.62 138.388 351.62 138.388C351.62 138.388 354.481 128.801 347.911 125.199C344.808 120.134 335.447 120.435 331.306 121.865L330.72 122.604C330.72 122.604 322.606 124.494 322.49 131.219C319.29 131.591 315.901 131.061 318.589 133.182Z" fill="#4575CB"/>
<path opacity="0.2" d="M330.721 122.605L331.307 121.866C331.307 121.866 337.805 121.113 343.343 125.827C340.195 124.011 335 122.249 330.721 122.605Z" fill="black"/>
<path d="M326.215 140.859C324.449 140.623 322.767 143.195 322.164 145.044C321.494 147.098 322.222 149.001 324.058 148.34C325.279 147.901 326.625 146.813 327.475 145.195C328.448 143.346 327.956 141.092 326.215 140.859Z" fill="#FFBE9D"/>
<path d="M351.411 402.203C356.516 401.304 356.419 403.937 356.754 406.772C356.947 408.402 356.788 410.23 355.913 411.771C354.114 414.936 355.655 419.616 349.926 419.616C344.197 419.616 343.676 418.291 345.221 415.46C346.767 412.629 347.55 409.639 348.244 406.367C348.592 404.725 349.142 402.603 351.411 402.203Z" fill="#263238"/>
<path d="M356.42 408.25C356.424 411.683 356.477 419.616 356.477 419.616L355.572 419.59C355.572 419.59 354.794 411.139 354.296 408.863L356.42 408.25Z" fill="#263238"/>
<path d="M313.103 403.329C313.504 404.225 313.621 405.224 313.565 406.208C313.357 409.834 312.572 419.447 312.572 419.447L311.743 419.452C311.743 419.452 311.98 412.981 311.664 410.596C311.348 408.211 310.166 412.428 308.51 414.813C306.853 417.199 303.692 419.37 298.292 419.54C291.97 419.738 289.421 419.472 291.318 417.889C293.215 416.306 297.447 415.274 297.447 415.274C297.447 415.274 302.282 413.482 305.393 408.123C307.41 404.648 310.388 403.061 312 402.243C312.516 402.333 312.859 402.783 313.103 403.329Z" fill="#263238"/>
<path d="M96.7258 69.4951H109.707V73.8581H100.914L100.444 76.8111C101.052 76.5251 101.654 76.3101 102.249 76.1661C102.844 76.0231 103.433 75.9511 104.015 75.9511C105.984 75.9511 107.581 76.5471 108.807 77.7371C110.033 78.9271 110.646 80.4261 110.646 82.2341C110.646 83.5051 110.33 84.7261 109.699 85.8991C109.068 87.0711 108.173 87.9661 107.014 88.5841C105.855 89.2011 104.371 89.5111 102.564 89.5111C101.266 89.5111 100.154 89.3881 99.2278 89.1421C98.3018 88.8961 97.5138 88.5291 96.8658 88.0401C96.2168 87.5531 95.6908 87.0001 95.2878 86.3831C94.8848 85.7651 94.5498 84.9951 94.2808 84.0731L99.8118 83.4691C99.9458 84.3551 100.26 85.0291 100.752 85.4901C101.244 85.9511 101.83 86.1801 102.511 86.1801C103.271 86.1801 103.9 85.8921 104.397 85.3151C104.894 84.7381 105.142 83.8771 105.142 82.7311C105.142 81.5581 104.892 80.6991 104.391 80.1531C103.889 79.6071 103.223 79.3351 102.39 79.3351C101.862 79.3351 101.352 79.4651 100.86 79.7241C100.493 79.9121 100.09 80.2521 99.6508 80.7451L94.9928 80.0741L96.7258 69.4951Z" fill="#4575CB"/>
<path d="M112.849 79.2551C112.849 75.5152 113.522 72.8972 114.87 71.4012C116.217 69.9072 118.268 69.1602 121.025 69.1602C122.349 69.1602 123.437 69.3232 124.287 69.6492C125.137 69.9762 125.831 70.4012 126.368 70.9242C126.905 71.4472 127.328 71.9981 127.636 72.5751C127.945 73.1521 128.193 73.8262 128.381 74.5962C128.748 76.0642 128.932 77.5941 128.932 79.1871C128.932 82.7581 128.328 85.3722 127.12 87.0282C125.912 88.6832 123.831 89.5112 120.878 89.5112C119.222 89.5112 117.884 89.2462 116.864 88.7192C115.843 88.1912 115.007 87.4162 114.354 86.3962C113.879 85.6712 113.51 84.6801 113.247 83.4231C112.981 82.1661 112.849 80.7761 112.849 79.2551ZM118.272 79.2691C118.272 81.7752 118.493 83.4872 118.936 84.4042C119.379 85.3222 120.021 85.7802 120.862 85.7802C121.417 85.7802 121.898 85.5862 122.305 85.1962C122.712 84.8062 123.012 84.1912 123.204 83.3502C123.396 82.5092 123.492 81.1982 123.492 79.4162C123.492 76.8032 123.27 75.0472 122.828 74.1472C122.385 73.2482 121.721 72.7971 120.834 72.7971C119.93 72.7971 119.277 73.2561 118.874 74.1731C118.474 75.0921 118.272 76.7901 118.272 79.2691Z" fill="#4575CB"/>
<path d="M131.186 79.2551C131.186 75.5152 131.859 72.8972 133.207 71.4012C134.554 69.9072 136.605 69.1602 139.362 69.1602C140.686 69.1602 141.774 69.3232 142.624 69.6492C143.474 69.9762 144.168 70.4012 144.705 70.9242C145.242 71.4472 145.665 71.9981 145.974 72.5751C146.283 73.1521 146.531 73.8262 146.719 74.5962C147.086 76.0642 147.27 77.5941 147.27 79.1871C147.27 82.7581 146.665 85.3722 145.457 87.0282C144.249 88.6832 142.168 89.5112 139.215 89.5112C137.559 89.5112 136.221 89.2462 135.201 88.7192C134.181 88.1912 133.344 87.4162 132.691 86.3962C132.216 85.6712 131.847 84.6801 131.584 83.4231C131.319 82.1661 131.186 80.7761 131.186 79.2551ZM136.61 79.2691C136.61 81.7752 136.831 83.4872 137.275 84.4042C137.718 85.3222 138.36 85.7802 139.201 85.7802C139.756 85.7802 140.237 85.5862 140.644 85.1962C141.051 84.8062 141.351 84.1912 141.543 83.3502C141.735 82.5092 141.832 81.1982 141.832 79.4162C141.832 76.8032 141.61 75.0472 141.167 74.1472C140.724 73.2482 140.06 72.7971 139.173 72.7971C138.269 72.7971 137.616 73.2561 137.213 74.1731C136.811 75.0921 136.61 76.7901 136.61 79.2691Z" fill="#4575CB"/>
<path d="M160.13 89.1761V69.4951H162.735V89.1761H160.13Z" fill="#3C474C"/>
<path d="M167.017 89.1762V74.9192H169.192V76.9462C170.239 75.3802 171.751 74.5962 173.729 74.5962C174.588 74.5962 175.378 74.7502 176.099 75.0592C176.819 75.3692 177.359 75.7732 177.717 76.2742C178.075 76.7762 178.325 77.3712 178.469 78.0602C178.558 78.5072 178.603 79.2902 178.603 80.4092V89.1762H176.187V80.5042C176.187 79.5202 176.093 78.7832 175.905 78.2952C175.717 77.8082 175.384 77.4182 174.905 77.1272C174.426 76.8372 173.865 76.6912 173.22 76.6912C172.191 76.6912 171.302 77.0172 170.555 77.6702C169.808 78.3232 169.434 79.5632 169.434 81.3892V89.1752L167.017 89.1762Z" fill="#3C474C"/>
<path d="M187.583 87.015L187.932 89.15C187.252 89.293 186.644 89.364 186.106 89.364C185.229 89.364 184.549 89.225 184.066 88.948C183.583 88.671 183.243 88.306 183.046 87.854C182.849 87.402 182.751 86.451 182.751 85.001V76.799H180.979V74.919H182.751V71.389L185.154 69.939V74.919H187.584V76.799H185.154V85.135C185.154 85.824 185.196 86.268 185.282 86.464C185.367 86.661 185.506 86.818 185.698 86.934C185.89 87.051 186.165 87.109 186.524 87.109C186.791 87.108 187.145 87.077 187.583 87.015Z" fill="#3C474C"/>
<path d="M199.706 84.5852L202.203 84.8942C201.809 86.3532 201.08 87.4852 200.015 88.2902C198.95 89.0962 197.589 89.4982 195.934 89.4982C193.849 89.4982 192.195 88.8552 190.974 87.5712C189.752 86.2872 189.141 84.4862 189.141 82.1682C189.141 79.7702 189.759 77.9082 190.994 76.5842C192.229 75.2592 193.831 74.5972 195.8 74.5972C197.706 74.5972 199.263 75.2462 200.471 76.5432C201.679 77.8412 202.284 79.6672 202.284 82.0212C202.284 82.1652 202.28 82.3792 202.271 82.6662H191.639C191.728 84.2322 192.171 85.4322 192.968 86.2642C193.764 87.0962 194.758 87.5122 195.948 87.5122C196.834 87.5122 197.59 87.2802 198.217 86.8152C198.842 86.3482 199.339 85.6042 199.706 84.5852ZM191.772 80.6782H199.732C199.625 79.4792 199.32 78.5792 198.819 77.9802C198.049 77.0492 197.051 76.5842 195.825 76.5842C194.715 76.5842 193.782 76.9552 193.026 77.6982C192.27 78.4402 191.852 79.4352 191.772 80.6782Z" fill="#3C474C"/>
<path d="M205.21 89.1762V74.9192H207.385V77.0802C207.94 76.0692 208.452 75.4022 208.922 75.0802C209.392 74.7582 209.908 74.5972 210.472 74.5972C211.286 74.5972 212.114 74.8572 212.955 75.3752L212.123 77.6172C211.532 77.2682 210.941 77.0942 210.351 77.0942C209.823 77.0942 209.348 77.2532 208.928 77.5702C208.508 77.8872 208.208 78.3292 208.029 78.8922C207.76 79.7512 207.626 80.6912 207.626 81.7112V89.1752L205.21 89.1762Z" fill="#3C474C"/>
<path d="M214.392 89.1762V74.9192H216.567V76.9462C217.614 75.3802 219.126 74.5962 221.104 74.5962C221.963 74.5962 222.753 74.7502 223.474 75.0592C224.194 75.3692 224.734 75.7732 225.092 76.2742C225.45 76.7762 225.7 77.3712 225.844 78.0602C225.933 78.5072 225.978 79.2902 225.978 80.4092V89.1762H223.562V80.5042C223.562 79.5202 223.468 78.7832 223.28 78.2952C223.092 77.8082 222.759 77.4182 222.28 77.1272C221.801 76.8372 221.24 76.6912 220.595 76.6912C219.566 76.6912 218.677 77.0172 217.93 77.6702C217.183 78.3232 216.809 79.5632 216.809 81.3892V89.1752L214.392 89.1762Z" fill="#3C474C"/>
<path d="M238.986 87.4172C238.091 88.1782 237.229 88.7152 236.402 89.0282C235.574 89.3412 234.686 89.4982 233.737 89.4982C232.171 89.4982 230.967 89.1152 230.126 88.3512C229.285 87.5852 228.864 86.6082 228.864 85.4172C228.864 84.7192 229.023 84.0812 229.341 83.5042C229.658 82.9272 230.074 82.4642 230.589 82.1142C231.104 81.7652 231.683 81.5022 232.328 81.3222C232.802 81.1972 233.518 81.0762 234.476 80.9602C236.427 80.7282 237.863 80.4502 238.785 80.1282C238.794 79.7972 238.799 79.5862 238.799 79.4972C238.799 78.5132 238.57 77.8182 238.114 77.4162C237.497 76.8702 236.579 76.5972 235.362 76.5972C234.225 76.5972 233.387 76.7962 232.845 77.1952C232.303 77.5932 231.903 78.2992 231.644 79.3092L229.281 78.9872C229.496 77.9762 229.849 77.1602 230.342 76.5372C230.834 75.9162 231.546 75.4362 232.476 75.1012C233.407 74.7652 234.485 74.5972 235.711 74.5972C236.928 74.5972 237.917 74.7402 238.678 75.0272C239.439 75.3132 239.998 75.6732 240.356 76.1082C240.714 76.5422 240.964 77.0892 241.108 77.7532C241.188 78.1642 241.229 78.9072 241.229 79.9822V83.2042C241.229 85.4502 241.28 86.8712 241.383 87.4662C241.486 88.0622 241.69 88.6322 241.994 89.1782H239.47C239.218 88.6752 239.057 88.0892 238.986 87.4172ZM238.784 82.0212C237.907 82.3792 236.591 82.6832 234.837 82.9342C233.844 83.0772 233.141 83.2382 232.73 83.4172C232.318 83.5962 232.001 83.8572 231.777 84.2022C231.553 84.5472 231.441 84.9302 231.441 85.3492C231.441 85.9942 231.685 86.5312 232.173 86.9602C232.66 87.3902 233.374 87.6052 234.314 87.6052C235.245 87.6052 236.072 87.4012 236.797 86.9942C237.522 86.5872 238.054 86.0302 238.395 85.3232C238.654 84.7772 238.784 83.9722 238.784 82.9062V82.0212Z" fill="#3C474C"/>
<path d="M244.919 89.1761V69.4951H247.335V89.1761H244.919Z" fill="#3C474C"/>
<path d="M257.753 84.9202L260.143 84.5442C260.277 85.5022 260.651 86.2352 261.264 86.7462C261.877 87.2562 262.734 87.5112 263.835 87.5112C264.944 87.5112 265.768 87.2862 266.305 86.8332C266.842 86.3822 267.111 85.8522 267.111 85.2422C267.111 84.6962 266.874 84.2662 266.4 83.9542C266.069 83.7392 265.245 83.4662 263.93 83.1352C262.158 82.6882 260.93 82.3012 260.245 81.9742C259.56 81.6472 259.041 81.1962 258.688 80.6182C258.334 80.0412 258.158 79.4032 258.158 78.7062C258.158 78.0702 258.304 77.4812 258.594 76.9402C258.885 76.3982 259.281 75.9492 259.783 75.5902C260.158 75.3132 260.671 75.0782 261.32 74.8862C261.968 74.6942 262.664 74.5972 263.407 74.5972C264.526 74.5972 265.508 74.7582 266.354 75.0802C267.2 75.4022 267.824 75.8392 268.226 76.3892C268.629 76.9402 268.906 77.6762 269.059 78.5982L266.696 78.9202C266.589 78.1862 266.278 77.6132 265.763 77.2012C265.248 76.7902 264.521 76.5842 263.581 76.5842C262.471 76.5842 261.679 76.7682 261.205 77.1342C260.73 77.5012 260.494 77.9312 260.494 78.4232C260.494 78.7362 260.592 79.0182 260.789 79.2692C260.986 79.5292 261.294 79.7442 261.715 79.9142C261.957 80.0032 262.668 80.2092 263.849 80.5312C265.558 80.9882 266.751 81.3612 267.427 81.6522C268.103 81.9432 268.633 82.3662 269.018 82.9212C269.403 83.4762 269.595 84.1652 269.595 84.9882C269.595 85.7942 269.36 86.5532 268.89 87.2632C268.42 87.9752 267.742 88.5252 266.856 88.9142C265.97 89.3042 264.967 89.4982 263.849 89.4982C261.996 89.4982 260.584 89.1132 259.614 88.3442C258.641 87.5742 258.022 86.4332 257.753 84.9202Z" fill="#3C474C"/>
<path d="M282.226 84.5852L284.723 84.8942C284.329 86.3532 283.6 87.4852 282.535 88.2902C281.47 89.0962 280.109 89.4982 278.454 89.4982C276.369 89.4982 274.715 88.8552 273.494 87.5712C272.272 86.2872 271.661 84.4862 271.661 82.1682C271.661 79.7702 272.279 77.9082 273.514 76.5842C274.749 75.2592 276.351 74.5972 278.32 74.5972C280.226 74.5972 281.783 75.2462 282.991 76.5432C284.199 77.8412 284.804 79.6672 284.804 82.0212C284.804 82.1652 284.8 82.3792 284.791 82.6662H274.159C274.248 84.2322 274.691 85.4322 275.488 86.2642C276.284 87.0962 277.278 87.5122 278.468 87.5122C279.354 87.5122 280.11 87.2802 280.737 86.8152C281.362 86.3482 281.859 85.6042 282.226 84.5852ZM274.293 80.6782H282.253C282.146 79.4792 281.841 78.5792 281.34 77.9802C280.57 77.0492 279.573 76.5842 278.346 76.5842C277.236 76.5842 276.303 76.9552 275.547 77.6982C274.791 78.4402 274.373 79.4352 274.293 80.6782Z" fill="#3C474C"/>
<path d="M287.73 89.1762V74.9192H289.905V77.0802C290.46 76.0692 290.972 75.4022 291.442 75.0802C291.912 74.7582 292.428 74.5972 292.992 74.5972C293.806 74.5972 294.634 74.8572 295.475 75.3752L294.643 77.6172C294.052 77.2682 293.461 77.0942 292.871 77.0942C292.343 77.0942 291.868 77.2532 291.448 77.5702C291.028 77.8872 290.728 78.3292 290.549 78.8922C290.281 79.7512 290.146 80.6912 290.146 81.7112V89.1752L287.73 89.1762Z" fill="#3C474C"/>
<path d="M300.873 89.1759L295.45 74.9189H298L301.06 83.4569C301.391 84.3789 301.695 85.3359 301.973 86.3299C302.188 85.5779 302.487 84.6739 302.872 83.6179L306.04 74.9189H308.523L303.126 89.1759H300.873Z" fill="#3C474C"/>
<path d="M320.418 84.5852L322.915 84.8942C322.521 86.3532 321.792 87.4852 320.727 88.2902C319.662 89.0962 318.301 89.4982 316.646 89.4982C314.56 89.4982 312.907 88.8552 311.685 87.5712C310.463 86.2872 309.852 84.4862 309.852 82.1682C309.852 79.7702 310.47 77.9082 311.705 76.5842C312.94 75.2592 314.542 74.5972 316.511 74.5972C318.417 74.5972 319.974 75.2462 321.182 76.5432C322.39 77.8412 322.995 79.6672 322.995 82.0212C322.995 82.1652 322.991 82.3792 322.982 82.6662H312.35C312.439 84.2322 312.882 85.4322 313.679 86.2642C314.475 87.0962 315.469 87.5122 316.659 87.5122C317.545 87.5122 318.301 87.2802 318.928 86.8152C319.555 86.3482 320.052 85.6042 320.418 84.5852ZM312.485 80.6782H320.445C320.338 79.4792 320.033 78.5792 319.532 77.9802C318.762 77.0492 317.764 76.5842 316.538 76.5842C315.428 76.5842 314.495 76.9552 313.739 77.6982C312.983 78.4402 312.565 79.4352 312.485 80.6782Z" fill="#3C474C"/>
<path d="M325.923 89.1762V74.9192H328.098V77.0802C328.653 76.0692 329.165 75.4022 329.635 75.0802C330.105 74.7582 330.621 74.5972 331.185 74.5972C331.999 74.5972 332.827 74.8572 333.668 75.3752L332.836 77.6172C332.245 77.2682 331.654 77.0942 331.064 77.0942C330.536 77.0942 330.061 77.2532 329.641 77.5702C329.221 77.8872 328.921 78.3292 328.742 78.8922C328.473 79.7512 328.339 80.6912 328.339 81.7112V89.1752L325.923 89.1762Z" fill="#3C474C"/>
<path d="M352.503 84.5852L355 84.8942C354.606 86.3532 353.877 87.4852 352.812 88.2902C351.747 89.0962 350.386 89.4982 348.731 89.4982C346.646 89.4982 344.992 88.8552 343.771 87.5712C342.549 86.2872 341.939 84.4862 341.939 82.1682C341.939 79.7702 342.557 77.9082 343.791 76.5842C345.026 75.2592 346.628 74.5972 348.597 74.5972C350.503 74.5972 352.06 75.2462 353.268 76.5432C354.477 77.8412 355.081 79.6672 355.081 82.0212C355.081 82.1652 355.077 82.3792 355.068 82.6662H344.436C344.525 84.2322 344.968 85.4322 345.765 86.2642C346.561 87.0962 347.555 87.5122 348.745 87.5122C349.631 87.5122 350.387 87.2802 351.014 86.8152C351.64 86.3482 352.137 85.6042 352.503 84.5852ZM344.57 80.6782H352.531C352.424 79.4792 352.119 78.5792 351.618 77.9802C350.848 77.0492 349.85 76.5842 348.624 76.5842C347.514 76.5842 346.581 76.9552 345.825 77.6982C345.068 78.4402 344.65 79.4352 344.57 80.6782Z" fill="#3C474C"/>
<path d="M358.007 89.1762V74.9192H360.182V77.0802C360.737 76.0692 361.249 75.4022 361.719 75.0802C362.189 74.7582 362.705 74.5972 363.269 74.5972C364.084 74.5972 364.911 74.8572 365.752 75.3752L364.92 77.6172C364.329 77.2682 363.738 77.0942 363.148 77.0942C362.62 77.0942 362.146 77.2532 361.725 77.5702C361.305 77.8872 361.005 78.3292 360.826 78.8922C360.557 79.7512 360.423 80.6912 360.423 81.7112V89.1752L358.007 89.1762Z" fill="#3C474C"/>
<path d="M367.163 89.1762V74.9192H369.338V77.0802C369.893 76.0692 370.405 75.4022 370.875 75.0802C371.345 74.7582 371.861 74.5972 372.425 74.5972C373.239 74.5972 374.067 74.8572 374.908 75.3752L374.076 77.6172C373.485 77.2682 372.894 77.0942 372.304 77.0942C371.776 77.0942 371.301 77.2532 370.881 77.5702C370.461 77.8872 370.161 78.3292 369.982 78.8922C369.714 79.7512 369.579 80.6912 369.579 81.7112V89.1752L367.163 89.1762Z" fill="#3C474C"/>
<path d="M375.446 82.0472C375.446 79.4072 376.179 77.4522 377.647 76.1812C378.873 75.1252 380.368 74.5972 382.131 74.5972C384.091 74.5972 385.693 75.2402 386.937 76.5242C388.181 77.8082 388.803 79.5832 388.803 81.8462C388.803 83.6812 388.528 85.1242 387.977 86.1762C387.426 87.2282 386.625 88.0442 385.574 88.6252C384.522 89.2072 383.375 89.4982 382.131 89.4982C380.135 89.4982 378.522 88.8582 377.292 87.5782C376.061 86.2992 375.446 84.4552 375.446 82.0472ZM377.93 82.0472C377.93 83.8732 378.328 85.2402 379.125 86.1492C379.921 87.0572 380.924 87.5112 382.132 87.5112C383.331 87.5112 384.329 87.0552 385.126 86.1422C385.923 85.2292 386.321 83.8382 386.321 81.9672C386.321 80.2042 385.921 78.8682 385.12 77.9602C384.319 77.0522 383.323 76.5972 382.133 76.5972C380.925 76.5972 379.923 77.0492 379.126 77.9532C378.328 78.8572 377.93 80.2222 377.93 82.0472Z" fill="#3C474C"/>
<path d="M391.609 89.1762V74.9192H393.784V77.0802C394.339 76.0692 394.851 75.4022 395.321 75.0802C395.791 74.7582 396.307 74.5972 396.871 74.5972C397.685 74.5972 398.513 74.8572 399.354 75.3752L398.522 77.6172C397.931 77.2682 397.34 77.0942 396.75 77.0942C396.222 77.0942 395.747 77.2532 395.327 77.5702C394.907 77.8872 394.607 78.3292 394.428 78.8922C394.16 79.7512 394.025 80.6912 394.025 81.7112V89.1752L391.609 89.1762Z" fill="#3C474C"/>
</svg>
