<svg width="24" height="24" viewBox="0 0 24 24" fill="none" xmlns="http://www.w3.org/2000/svg">
<circle cx="12" cy="12.0029" r="12" fill="#50AF95"/>
<path fill-rule="evenodd" clip-rule="evenodd" d="M13.6277 12.9253C13.5368 12.9321 13.0671 12.9602 12.0193 12.9602C11.1859 12.9602 10.5943 12.9352 10.3867 12.9253C7.16606 12.7836 4.76216 12.223 4.76216 11.5518C4.76216 10.8805 7.16606 10.3206 10.3867 10.1767V12.3669C10.5973 12.3821 11.2003 12.4177 12.0337 12.4177C13.0338 12.4177 13.5345 12.376 13.6247 12.3677V10.1782C16.8385 10.3214 19.2371 10.882 19.2371 11.5518C19.2371 12.2215 16.8392 12.7821 13.6247 12.9246L13.6277 12.9253ZM13.6277 9.95167V7.99172H18.1128V5.00293H5.90161V7.99172H10.3859V9.95091C6.74104 10.1183 4 10.8404 4 11.7055C4 12.5707 6.74104 13.292 10.3859 13.4602V19.7408H13.627V13.4579C17.2635 13.2905 20 12.5692 20 11.7048C20 10.8404 17.2658 10.1191 13.627 9.95091L13.6277 9.95167Z" fill="white"/>
</svg>
