<svg width="160" height="120" viewBox="0 0 160 120" fill="none" xmlns="http://www.w3.org/2000/svg">
<g id="empty-history-illustration">
<g id="Shadow">
<path id="path" d="M80.0512 115.116C114.542 115.116 142.502 113.484 142.502 111.47C142.502 109.457 114.542 107.824 80.0512 107.824C45.5604 107.824 17.6001 109.457 17.6001 111.47C17.6001 113.484 45.5604 115.116 80.0512 115.116Z" fill="#667085"/>
</g>
<g id="Box">
<path id="Vector" d="M40.1467 86.4932H81.5167V107.851C81.5167 108.125 81.4628 108.396 81.358 108.649C81.2533 108.902 81.0998 109.131 80.9063 109.325C80.7128 109.518 80.4831 109.672 80.2302 109.777C79.9774 109.881 79.7064 109.935 79.4327 109.935H42.2307C41.957 109.935 41.686 109.881 41.4332 109.777C41.1803 109.672 40.9506 109.518 40.7571 109.325C40.5636 109.131 40.4101 108.902 40.3053 108.649C40.2006 108.396 40.1467 108.125 40.1467 107.851V86.4932Z" fill="#000AFF"/>
<path id="Vector_2" d="M40.1467 86.4927H69.422L65.821 81.8835C65.4248 81.3778 64.4456 80.9688 63.6307 80.9688H37.3026C36.4909 80.9688 36.1495 81.3778 36.5457 81.8835L40.1467 86.4927Z" fill="#000AFF"/>
<path id="Vector_3" opacity="0.2" d="M40.1467 86.4927H69.422L65.821 81.8835C65.4248 81.3778 64.4456 80.9688 63.6307 80.9688H37.3026C36.4909 80.9688 36.1495 81.3778 36.5457 81.8835L40.1467 86.4927Z" fill="black"/>
<path id="Vector_4" d="M81.5167 86.4936H52.2446L55.8457 83.4884C56.2418 83.1664 57.221 82.8926 58.0359 82.8926H84.3608C85.1757 82.8926 85.5139 83.1599 85.1177 83.4884L81.5167 86.4936Z" fill="#000AFF"/>
<path id="Vector_5" opacity="0.2" d="M52.2447 86.4932H81.5167V107.851C81.5167 108.125 81.4628 108.396 81.3581 108.649C81.2534 108.902 81.0999 109.131 80.9064 109.325C80.7128 109.518 80.4831 109.672 80.2303 109.777C79.9774 109.881 79.7064 109.935 79.4328 109.935H54.3286C54.055 109.935 53.784 109.881 53.5311 109.777C53.2783 109.672 53.0486 109.518 52.855 109.325C52.6615 109.131 52.508 108.902 52.4033 108.649C52.2986 108.396 52.2447 108.125 52.2447 107.851V86.4932Z" fill="white"/>
<path id="Vector_6" opacity="0.5" d="M43.78 86.4932V101.142L44.7914 100.343L45.5032 101.142L46.1216 100.253L46.7562 101.142L47.6387 100.475L48.6114 101.142V86.4932H43.78Z" fill="white"/>
</g>
<g id="Character">
<path id="Vector_7" d="M68.6071 65.943L85.7684 44.4946L62.9189 25.3105L47.7804 42.6812L45.5257 47.0263C45.4138 47.1496 45.3285 47.2947 45.2752 47.4525C45.2219 47.6104 45.2017 47.7775 45.2159 47.9434C45.2301 48.1094 45.2784 48.2706 45.3578 48.4171C45.4371 48.5635 45.5458 48.692 45.6771 48.7946L66.2913 66.104C66.6265 66.3741 67.0513 66.5076 67.4808 66.4777C67.9102 66.4479 68.3125 66.2569 68.6071 65.943Z" fill="#000AFF"/>
<path id="Vector_8" opacity="0.5" d="M56.8378 50.125L54.3673 54.1029L55.3626 54.3187L55.7008 55.2399L56.3611 55.2785L56.667 56.0677L57.4755 56.3028L58.0971 57.2916L60.5676 53.3138L56.8378 50.125Z" fill="white"/>
<path id="Vector_9" opacity="0.1" d="M85.0212 43.8665L69.6314 61.0342L47.7708 42.6812L62.9189 25.3105L85.0212 43.8665Z" fill="black"/>
<path id="Vector_10" d="M85.0211 43.8662L69.6313 61.0339L76.0024 61.5042L91.1538 44.1335L85.0211 43.8662Z" fill="#000AFF"/>
<path id="Vector_11" opacity="0.3" d="M85.0211 43.8662L69.6313 61.0339L76.0024 61.5042L91.1538 44.1335L85.0211 43.8662Z" fill="black"/>
<path id="Vector_12" d="M56.7894 25.04L41.3964 42.211L47.7707 42.6812L62.9189 25.3106L56.7894 25.04Z" fill="#000AFF"/>
<path id="Vector_13" opacity="0.4" d="M56.7894 25.04L41.3964 42.211L47.7707 42.6812L62.9189 25.3106L56.7894 25.04Z" fill="black"/>
<path id="Vector_14" opacity="0.1" d="M80.2831 49.1521L85.0211 43.8665L62.9189 25.3105L60.0909 32.1261L80.2831 49.1521Z" fill="black"/>
<path id="Vector_15" opacity="0.2" d="M47.7708 42.6812L62.9189 25.3105L60.0909 32.1261L49.4231 44.0694L47.7708 42.6812Z" fill="black"/>
<g id="Vector_16">
<path d="M113.9 105.406C113.796 105.454 113.682 105.48 113.567 105.484C113.452 105.487 113.338 105.467 113.23 105.426C113.188 105.392 113.157 105.346 113.141 105.295C113.126 105.243 113.126 105.187 113.143 105.136C113.152 105.094 113.17 105.054 113.195 105.02C113.221 104.985 113.254 104.957 113.292 104.936C113.639 104.733 114.499 105.001 114.535 105.014C114.547 105.017 114.557 105.023 114.565 105.032C114.573 105.042 114.578 105.053 114.58 105.065C114.582 105.078 114.579 105.091 114.574 105.102C114.568 105.114 114.559 105.123 114.548 105.129C114.342 105.244 114.125 105.336 113.9 105.406ZM113.43 105.014L113.356 105.046C113.334 105.058 113.315 105.074 113.3 105.094C113.285 105.114 113.274 105.137 113.269 105.162C113.246 105.278 113.292 105.313 113.304 105.323C113.459 105.432 113.984 105.274 114.348 105.091C114.051 104.998 113.738 104.971 113.43 105.014Z" fill="#000AFF"/>
<path d="M114.535 105.133C114.524 105.137 114.513 105.137 114.503 105.133C114.18 105.069 113.507 104.666 113.472 104.363C113.467 104.316 113.478 104.268 113.505 104.228C113.531 104.188 113.571 104.158 113.617 104.144C113.661 104.125 113.71 104.114 113.759 104.114C113.807 104.114 113.856 104.125 113.9 104.144C114.274 104.299 114.564 105.021 114.573 105.05C114.58 105.059 114.583 105.07 114.583 105.082C114.583 105.093 114.58 105.104 114.573 105.114C114.569 105.12 114.563 105.125 114.556 105.128C114.55 105.132 114.542 105.133 114.535 105.133ZM113.697 104.254C113.688 104.251 113.678 104.251 113.668 104.254C113.594 104.286 113.597 104.325 113.601 104.341C113.62 104.521 114.077 104.847 114.403 104.966C114.306 104.756 114.081 104.351 113.852 104.254C113.802 104.235 113.747 104.235 113.697 104.254Z" fill="#000AFF"/>
</g>
<g id="Vector_17">
<path d="M95.0222 108.866C94.6775 108.866 94.3458 108.818 94.233 108.663C94.2042 108.623 94.1887 108.575 94.1887 108.525C94.1887 108.475 94.2042 108.427 94.233 108.386C94.2545 108.349 94.2833 108.317 94.3176 108.291C94.3519 108.265 94.391 108.246 94.4327 108.235C94.8804 108.116 95.821 108.651 95.8596 108.673C95.8716 108.679 95.8813 108.688 95.8874 108.7C95.8936 108.712 95.8957 108.725 95.8935 108.738C95.8913 108.751 95.885 108.763 95.8754 108.773C95.8658 108.782 95.8535 108.788 95.8403 108.789C95.5705 108.839 95.2966 108.865 95.0222 108.866ZM94.597 108.345C94.5556 108.343 94.5142 108.348 94.4746 108.361C94.423 108.372 94.3779 108.403 94.349 108.448C94.3039 108.528 94.32 108.567 94.349 108.589C94.4746 108.763 95.1542 108.767 95.6374 108.696C95.3165 108.513 94.9632 108.393 94.597 108.345Z" fill="#000AFF"/>
<path d="M95.8338 108.792H95.8081C95.486 108.647 94.8418 108.064 94.8901 107.761C94.8901 107.69 94.9545 107.6 95.1285 107.584C95.1914 107.577 95.2551 107.583 95.3155 107.602C95.3759 107.621 95.4318 107.652 95.4795 107.693C95.8242 107.974 95.895 108.698 95.8983 108.727C95.9001 108.738 95.8986 108.75 95.894 108.76C95.8894 108.77 95.882 108.779 95.8725 108.785C95.8607 108.792 95.8471 108.794 95.8338 108.792ZM95.1897 107.703H95.151C95.0351 107.703 95.0286 107.761 95.0254 107.774C94.9964 107.958 95.4344 108.418 95.763 108.615C95.7349 108.307 95.611 108.017 95.4087 107.784C95.3483 107.73 95.2702 107.702 95.1897 107.703Z" fill="#000AFF"/>
</g>
<path id="Vector_18" d="M98.7908 108.728H96.1013L95.8339 102.505H98.5234L98.7908 108.728Z" fill="#FFC3BD"/>
<path id="Vector_19" d="M117.682 104.48L115.205 105.333L112.634 99.4678L115.111 98.6143L117.682 104.48Z" fill="#FFC3BD"/>
<path id="Vector_20" d="M114.615 104.717L117.514 103.832C117.565 103.816 117.62 103.818 117.67 103.838C117.72 103.858 117.762 103.894 117.788 103.941L118.996 106.067C119.025 106.119 119.042 106.177 119.045 106.236C119.049 106.296 119.039 106.355 119.016 106.41C118.994 106.465 118.959 106.515 118.915 106.554C118.87 106.594 118.818 106.624 118.761 106.64C117.746 106.933 117.24 107.024 115.971 107.413C115.189 107.652 113.217 108.399 112.106 108.621C110.995 108.843 110.637 107.781 111.069 107.59C113.002 106.737 113.794 105.767 114.254 105.014C114.335 104.874 114.463 104.769 114.615 104.717Z" fill="#263238"/>
<path id="Vector_21" d="M96.1205 108.415H99.0548C99.1079 108.416 99.1593 108.434 99.2007 108.467C99.2421 108.501 99.2713 108.547 99.2835 108.599L99.8149 110.989C99.8281 111.046 99.8281 111.106 99.8147 111.164C99.8013 111.221 99.775 111.275 99.7378 111.321C99.7005 111.367 99.6533 111.404 99.5997 111.429C99.5461 111.454 99.4875 111.466 99.4284 111.465C98.3687 111.449 96.8516 111.385 95.5085 111.385C93.9528 111.385 93.2989 111.472 91.4727 111.472C90.3711 111.472 90.0651 110.357 90.5257 110.254C92.629 109.794 93.6565 109.745 95.4731 108.624C95.6657 108.497 95.8896 108.424 96.1205 108.415Z" fill="#263238"/>
<path id="Vector_22" d="M103.931 20.1895C104.714 20.9077 105.391 21.626 106.093 22.3765C106.795 23.127 107.445 23.9032 108.077 24.731C108.736 25.572 109.335 26.4589 109.868 27.3851C110.159 27.8956 110.411 28.4275 110.621 28.9762C110.676 29.1276 110.731 29.2726 110.776 29.4368C110.829 29.603 110.873 29.7718 110.908 29.9425L110.963 30.2099L111.001 30.5062C111.037 30.7777 111.037 31.0528 111.001 31.3243C110.927 31.8368 110.738 32.3259 110.447 32.7544C110.235 33.0674 109.987 33.354 109.707 33.608C109.256 34.0165 108.764 34.376 108.238 34.6806C107.311 35.2108 106.341 35.6622 105.339 36.0301C103.438 36.736 101.478 37.2748 99.4833 37.6406L98.9196 35.7081C100.669 34.9511 102.44 34.133 104.073 33.2601C104.868 32.8431 105.633 32.3717 106.363 31.8493C106.667 31.6333 106.947 31.3849 107.197 31.1085C107.274 31.0268 107.338 30.9346 107.388 30.8347C107.413 30.78 107.388 30.7864 107.355 30.9024C107.333 31.1182 107.336 30.9507 107.284 30.8347C107.268 30.78 107.239 30.7059 107.21 30.635C107.181 30.5642 107.146 30.4836 107.111 30.4063C106.936 30.0551 106.741 29.7141 106.528 29.3853C106.03 28.6467 105.492 27.9359 104.917 27.2562C104.324 26.5541 103.7 25.8551 103.059 25.1691C102.418 24.483 101.744 23.7905 101.126 23.1527L103.931 20.1895Z" fill="#FFC3BD"/>
<path id="Vector_23" opacity="0.2" d="M95.8339 102.508L95.9724 105.716H98.6619L98.5234 102.508H95.8339Z" fill="black"/>
<path id="Vector_24" opacity="0.2" d="M115.111 98.6143L112.634 99.4678L113.961 102.492L116.438 101.639L115.111 98.6143Z" fill="black"/>
<g id="Vector_25">
<path d="M97.5217 12.9224C97.6635 14.6295 98.0854 17.7539 99.0936 18.4754C99.0936 18.4754 98.8552 20.5271 95.2284 21.0521C91.2538 21.6384 93.0382 19.3579 93.0382 19.3579C95.1286 18.5205 94.8355 16.9197 94.2364 15.4638L95.7695 13.7051C96.359 13.0545 97.4444 12.0496 97.5217 12.9224Z" fill="#FFC3BD"/>
<path d="M97.1707 9.07044C97.7633 11.6698 98.24 13.1611 97.3349 14.8682C95.9757 17.4095 92.4777 17.1647 91.1217 14.7941C89.901 12.6586 89.1344 8.76767 91.3375 7.01547C91.8203 6.62781 92.394 6.36974 93.0044 6.26566C93.6148 6.16158 94.2416 6.21493 94.8256 6.42067C95.4096 6.6264 95.9315 6.97773 96.3418 7.4414C96.7522 7.90507 97.0374 8.46576 97.1707 9.07044Z" fill="#FFC3BD"/>
</g>
<g id="Vector_26">
<path d="M91.9494 11.6183L90.9605 12.2239L91.0539 8.84185C90.4164 8.86923 89.7874 8.68709 89.2631 8.32327C89.6206 7.98185 95.1864 6.03317 96.9225 6.37137C97.1029 6.29729 97.3219 5.96231 97.3219 5.96231C97.3219 5.96231 97.3896 6.38425 97.0965 6.5453C97.309 6.50343 97.8405 6.6065 97.9887 6.91893C97.7448 6.85233 97.4858 6.86703 97.2511 6.9608C97.2511 6.9608 99.1836 7.25391 98.4976 9.93375C97.7278 12.8874 97.9822 14.5848 97.9822 14.5848C97.9822 14.5848 96.5457 15.6961 95.2959 15.4899C93.9625 14.0212 92.0363 12.2561 91.9494 11.6183Z" fill="#263238"/>
<path d="M90.0555 8.0562C88.4869 8.0562 87.9232 7.28961 87.5206 6.64542C88.6479 6.52625 90.996 5.80153 92.7385 5.67913C94.4811 5.55674 96.3911 5.88205 95.8145 6.64542C95.238 7.40879 90.0555 8.0562 90.0555 8.0562Z" fill="#263238"/>
<path d="M90.4001 7.35725C89.1117 7.17688 87.8556 5.96257 88.8218 4.7998C89.1794 5.65336 91.5919 5.55351 93.3054 5.19598C95.5601 4.72572 97.1222 5.48587 96.3234 7.02227C95.8854 7.86294 90.4001 7.35725 90.4001 7.35725Z" fill="#263238"/>
</g>
<path id="Vector_27" d="M93.3409 10.8496C93.5253 11.4856 93.4959 12.1645 93.2572 12.7822C92.9351 13.5906 92.22 13.4263 91.8464 12.7274C91.5243 12.0832 91.2795 10.914 91.827 10.331C92.3746 9.74801 93.109 10.0862 93.3409 10.8496Z" fill="#FFC3BD"/>
<path id="Vector_28" d="M97.351 42.9654C97.351 42.9654 99.6572 62.5972 101.332 70.2888C103.165 78.7149 112.206 101.687 112.206 101.687L116.715 100.128C116.715 100.128 110.918 82.8312 109.378 71.0522C108.196 62.0077 106.511 41.6094 106.511 41.6094L97.351 42.9654Z" fill="#263238"/>
<path id="Vector_29" d="M111.053 100.243C111.03 100.243 111.977 102.176 111.977 102.176L117.244 100.465L116.625 98.8936L111.053 100.243Z" fill="#000AFF"/>
<path id="Vector_30" opacity="0.3" d="M98.6232 53.0361C99.3447 58.4924 100.269 64.9537 101.081 69.0797C102.276 62.757 102.556 54.7722 98.6232 53.0361Z" fill="black"/>
<path id="Vector_31" d="M92.3069 43.7079C92.3069 43.7079 90.3937 62.1511 90.6964 70.3452C90.9992 78.8679 94.9803 105.093 94.9803 105.093H99.5315C99.5315 105.093 98.6941 79.3639 98.8873 70.9959C99.1096 61.8709 102.53 42.1973 102.53 42.1973L92.3069 43.7079Z" fill="#263238"/>
<path id="Vector_32" d="M94.0946 103.281C94.0753 103.281 94.3523 105.169 94.3523 105.169H99.8891L100.04 103.484L94.0946 103.281Z" fill="#000AFF"/>
<g id="Vector_33">
<path d="M91.4244 25.2406C90.9219 26.0394 90.413 26.7577 89.8848 27.4953C89.3565 28.2329 88.8025 28.9447 88.2389 29.6534C87.0898 31.0909 85.8447 32.4489 84.5122 33.7182C84.1515 34.0403 83.8197 34.3624 83.43 34.6555L83.1465 34.8842L83.0048 34.9969C82.9533 35.0388 82.9307 35.0614 82.8244 35.1387C82.5053 35.3663 82.1549 35.5464 81.7841 35.6733C81.2099 35.8694 80.6094 35.978 80.0029 35.9954C79.4898 36.0127 78.9761 35.99 78.4665 35.9278C76.6035 35.6835 74.7861 35.1692 73.0714 34.4011L73.6286 32.4685C75.2766 32.664 76.9362 32.7436 78.5953 32.7068C78.9623 32.6876 79.3279 32.6478 79.6904 32.5877C79.9636 32.5477 80.2288 32.4651 80.4764 32.3429C80.5537 32.301 80.5955 32.2591 80.5859 32.2495C80.5762 32.2398 80.6277 32.2076 80.6567 32.1786L80.7662 32.0787L80.982 31.8758C81.2719 31.6181 81.5457 31.3057 81.8292 31.0223C82.3864 30.4232 82.9404 29.808 83.4654 29.1541C83.9904 28.5003 84.5219 27.8432 85.0372 27.1668C85.5526 26.4904 86.0518 25.8043 86.5543 25.1182C87.0568 24.4322 87.5464 23.7107 88.0102 23.0439L91.4244 25.2406Z" fill="#FFC3BD"/>
<path d="M74.5755 32.5874L71.2676 31.9818L71.6155 34.842C71.6155 34.842 73.3355 35.8083 74.582 34.2977L74.5755 32.5874Z" fill="#FFC3BD"/>
<path d="M69.9921 32.626L70.7072 34.6907L71.6155 34.842L71.2676 31.9818L69.9921 32.626Z" fill="#FFC3BD"/>
</g>
<path id="Vector_34" d="M100.392 19.3104C100.714 19.0173 100.07 17.8449 99.6734 17.6806C98.6362 17.2458 94.3942 17.6806 92.7998 19.0495C92.6676 19.276 92.5877 19.5292 92.5659 19.7906C92.5442 20.052 92.5812 20.3149 92.6742 20.5602L100.392 19.3104Z" fill="white"/>
<g id="Vector_35">
<path d="M97.9919 20.9176C97.7503 23.4943 103.2 27.4819 103.2 27.4819L108.447 23.8905C107.536 22.2101 106.204 20.7951 104.582 19.7838C101.574 17.8577 98.2947 17.7159 97.9919 20.9176Z" fill="#000AFF"/>
<path d="M89.0699 20.7112C89.0699 20.7112 86.7153 24.3251 92.3069 43.7089L106.524 41.6088C106.325 39.644 103.947 31.073 103.867 21.7033C103.864 21.2508 103.769 20.8037 103.588 20.3889C103.407 19.9741 103.144 19.6002 102.815 19.2899C102.485 18.9796 102.097 18.7392 101.672 18.5832C101.247 18.4272 100.795 18.3589 100.343 18.3825C99.9309 18.405 99.5058 18.434 99.0838 18.4759C97.0542 18.6568 95.0366 18.9547 93.0413 19.3681C91.685 19.7132 90.3572 20.1622 89.0699 20.7112Z" fill="#000AFF"/>
<path d="M93.2958 24.3867C94.378 27.9298 88.0939 31.8561 88.0939 31.8561L84.0098 26.6543C84.9303 24.939 86.0669 23.3489 87.3918 21.9227C90.1715 18.8982 92.4712 21.6908 93.2958 24.3867Z" fill="#000AFF"/>
</g>
<g id="Vector_36" opacity="0.3">
<path d="M97.992 20.918C97.7504 23.4948 103.2 27.4824 103.2 27.4824L108.447 23.891C107.536 22.2106 106.204 20.7955 104.582 19.7843C101.574 17.8581 98.2948 17.7164 97.992 20.918Z" fill="white"/>
<path d="M89.07 20.7122C89.07 20.7122 86.7155 24.3261 92.3071 43.7099L106.524 41.6098C106.325 39.645 103.948 31.074 103.867 21.7042C103.864 21.2518 103.769 20.8046 103.588 20.3898C103.407 19.9751 103.144 19.6012 102.815 19.2909C102.486 18.9805 102.097 18.7401 101.672 18.5842C101.247 18.4282 100.795 18.3599 100.343 18.3834C99.9311 18.406 99.5059 18.435 99.084 18.4768C97.0543 18.6578 95.0368 18.9557 93.0415 19.369C91.6851 19.7141 90.3574 20.1632 89.07 20.7122Z" fill="white"/>
<path d="M93.296 24.3867C94.3782 27.9298 88.0941 31.8561 88.0941 31.8561L84.0099 26.6543C84.9305 24.9391 86.0671 23.3489 87.392 21.9227C90.1716 18.8982 92.4714 21.6908 93.296 24.3867Z" fill="white"/>
</g>
</g>
</g>
</svg>
